<svg xmlns="http://www.w3.org/2000/svg" style="display: none;"><symbol id="bar-chart" viewBox="0 0 512.001 512.001"><title>bar-chart</title><circle style="fill:#16C6CC;" cx="259.567" cy="256.001" r="252.43"/><path style="fill:#21D8DE;" d="M454.128,95.156l-20.997,33.23l-71.105,39.407l-71.053-40.529l-71.105,26.26l-75.837,55.469 l-66.315-2.402L9.861,293.118c4.07,27.608,12.596,53.766,24.846,77.706h449.724c17.626-34.446,27.57-73.475,27.57-114.827 C512,194.876,490.275,138.83,454.128,95.156z"/><g> <rect x="28.541" y="331.159" style="fill:#FFFFFF;" width="21.952" height="39.654"/> <rect x="60.362" y="300.291" style="fill:#FFFFFF;" width="21.942" height="70.521"/> <rect x="92.184" y="312.367" style="fill:#FFFFFF;" width="21.942" height="58.445"/> <rect x="124.006" y="291.507" style="fill:#FFFFFF;" width="21.949" height="79.299"/> <rect x="155.819" y="270.376" style="fill:#FFFFFF;" width="21.946" height="100.436"/> <rect x="187.631" y="309.888" style="fill:#FFFFFF;" width="21.949" height="60.918"/> <rect x="219.463" y="288.495" style="fill:#FFFFFF;" width="21.946" height="82.316"/> <rect x="251.285" y="265.718" style="fill:#FFFFFF;" width="21.939" height="105.094"/> <rect x="283.098" y="277.242" style="fill:#FFFFFF;" width="21.942" height="93.569"/> <rect x="314.92" y="247.608" style="fill:#FFFFFF;" width="21.946" height="123.203"/> <rect x="346.732" y="319.354" style="fill:#FFFFFF;" width="21.952" height="51.448"/> <rect x="378.564" y="269.141" style="fill:#FFFFFF;" width="21.939" height="101.661"/> <rect x="410.377" y="235.261" style="fill:#FFFFFF;" width="21.946" height="135.551"/> <rect x="442.199" y="224.008" style="fill:#FFFFFF;" width="21.942" height="146.794"/> </g><g> <rect x="28.541" y="316.925" style="fill:#FF6D3B;" width="21.952" height="14.205"/> <rect x="60.362" y="255.217" style="fill:#FF6D3B;" width="21.942" height="45.072"/> <rect x="92.184" y="269.141" style="fill:#FF6D3B;" width="21.942" height="43.216"/> <rect x="124.006" y="261.532" style="fill:#FF6D3B;" width="21.949" height="29.975"/> <rect x="155.819" y="218.657" style="fill:#FF6D3B;" width="21.946" height="51.719"/> <rect x="187.631" y="274.431" style="fill:#FF6D3B;" width="21.949" height="35.456"/> <rect x="219.463" y="231.627" style="fill:#FF6D3B;" width="21.946" height="56.868"/> <rect x="251.285" y="212.001" style="fill:#FF6D3B;" width="21.939" height="53.716"/> <rect x="283.098" y="203.669" style="fill:#FF6D3B;" width="21.942" height="73.573"/> <rect x="314.92" y="190.288" style="fill:#FF6D3B;" width="21.946" height="57.32"/> <rect x="346.732" y="236.837" style="fill:#FF6D3B;" width="21.952" height="82.517"/> <rect x="378.564" y="192.938" style="fill:#FF6D3B;" width="21.939" height="76.214"/> <rect x="410.377" y="174.548" style="fill:#FF6D3B;" width="21.946" height="60.713"/> <rect x="442.199" y="128.38" style="fill:#FF6D3B;" width="21.942" height="95.627"/> </g><polygon style="fill:#242D3C;" points="485.531,371.217 6.044,371.217 6.044,74.051 7.137,74.051 7.137,370.396 485.531,370.396 "/><rect id="SVGCleanerId_0" y="337.474" style="fill:#242D3C;" width="6.584" height="0.818"/><g> <rect id="SVGCleanerId_0_1_" y="337.474" style="fill:#242D3C;" width="6.584" height="0.818"/> </g><rect id="SVGCleanerId_1" y="304.547" style="fill:#242D3C;" width="6.584" height="0.825"/><g> <rect id="SVGCleanerId_1_1_" y="304.547" style="fill:#242D3C;" width="6.584" height="0.825"/> </g><rect id="SVGCleanerId_2" y="271.61" style="fill:#242D3C;" width="6.584" height="0.822"/><g> <rect id="SVGCleanerId_2_1_" y="271.61" style="fill:#242D3C;" width="6.584" height="0.822"/> </g><rect id="SVGCleanerId_3" y="238.694" style="fill:#242D3C;" width="6.584" height="0.818"/><g> <rect id="SVGCleanerId_3_1_" y="238.694" style="fill:#242D3C;" width="6.584" height="0.818"/> </g><rect id="SVGCleanerId_4" y="205.757" style="fill:#242D3C;" width="6.584" height="0.828"/><g> <rect id="SVGCleanerId_4_1_" y="205.757" style="fill:#242D3C;" width="6.584" height="0.828"/> </g><rect id="SVGCleanerId_5" y="172.831" style="fill:#242D3C;" width="6.584" height="0.818"/><g> <rect id="SVGCleanerId_5_1_" y="172.831" style="fill:#242D3C;" width="6.584" height="0.818"/> </g><rect id="SVGCleanerId_6" y="139.904" style="fill:#242D3C;" width="6.584" height="0.828"/><g> <rect id="SVGCleanerId_6_1_" y="139.904" style="fill:#242D3C;" width="6.584" height="0.828"/> </g><rect id="SVGCleanerId_7" y="106.978" style="fill:#242D3C;" width="6.584" height="0.828"/><g> <rect id="SVGCleanerId_7_1_" y="106.978" style="fill:#242D3C;" width="6.584" height="0.828"/> </g><rect id="SVGCleanerId_8" y="74.051" style="fill:#242D3C;" width="6.584" height="0.822"/><g> <rect id="SVGCleanerId_8_1_" y="74.051" style="fill:#242D3C;" width="6.584" height="0.822"/> </g><rect id="SVGCleanerId_9" x="70.792" y="370.812" style="fill:#242D3C;" width="1.093" height="4.937"/><rect x="38.965" y="370.812" style="fill:#242D3C;" width="1.097" height="4.937"/><rect id="SVGCleanerId_10" x="102.614" y="370.812" style="fill:#242D3C;" width="1.097" height="4.937"/><g> <rect id="SVGCleanerId_9_1_" x="70.792" y="370.812" style="fill:#242D3C;" width="1.093" height="4.937"/> </g><rect id="SVGCleanerId_11" x="134.426" y="370.812" style="fill:#242D3C;" width="1.1" height="4.937"/><g> <rect id="SVGCleanerId_10_1_" x="102.614" y="370.812" style="fill:#242D3C;" width="1.097" height="4.937"/> </g><rect id="SVGCleanerId_12" x="166.239" y="370.812" style="fill:#242D3C;" width="1.1" height="4.937"/><g> <rect id="SVGCleanerId_11_1_" x="134.426" y="370.812" style="fill:#242D3C;" width="1.1" height="4.937"/> </g><rect id="SVGCleanerId_13" x="198.071" y="370.812" style="fill:#242D3C;" width="1.097" height="4.937"/><g> <rect id="SVGCleanerId_12_1_" x="166.239" y="370.812" style="fill:#242D3C;" width="1.1" height="4.937"/> </g><rect id="SVGCleanerId_14" x="229.883" y="370.812" style="fill:#242D3C;" width="1.097" height="4.937"/><g> <rect id="SVGCleanerId_13_1_" x="198.071" y="370.812" style="fill:#242D3C;" width="1.097" height="4.937"/> </g><rect id="SVGCleanerId_15" x="261.705" y="370.812" style="fill:#242D3C;" width="1.1" height="4.937"/><g> <rect id="SVGCleanerId_14_1_" x="229.883" y="370.812" style="fill:#242D3C;" width="1.097" height="4.937"/> </g><rect id="SVGCleanerId_16" x="293.528" y="370.812" style="fill:#242D3C;" width="1.09" height="4.937"/><g> <rect id="SVGCleanerId_15_1_" x="261.705" y="370.812" style="fill:#242D3C;" width="1.1" height="4.937"/> </g><rect id="SVGCleanerId_17" x="325.34" y="370.812" style="fill:#242D3C;" width="1.1" height="4.937"/><g> <rect id="SVGCleanerId_16_1_" x="293.528" y="370.812" style="fill:#242D3C;" width="1.09" height="4.937"/> </g><rect id="SVGCleanerId_18" x="357.172" y="370.812" style="fill:#242D3C;" width="1.093" height="4.937"/><g> <rect id="SVGCleanerId_17_1_" x="325.34" y="370.812" style="fill:#242D3C;" width="1.1" height="4.937"/> </g><rect id="SVGCleanerId_19" x="388.984" y="370.812" style="fill:#242D3C;" width="1.097" height="4.937"/><g> <rect id="SVGCleanerId_18_1_" x="357.172" y="370.812" style="fill:#242D3C;" width="1.093" height="4.937"/> </g><rect id="SVGCleanerId_20" x="420.807" y="370.812" style="fill:#242D3C;" width="1.097" height="4.937"/><g> <rect id="SVGCleanerId_19_1_" x="388.984" y="370.812" style="fill:#242D3C;" width="1.097" height="4.937"/> </g><rect id="SVGCleanerId_21" x="452.629" y="370.812" style="fill:#242D3C;" width="1.097" height="4.937"/><g> <rect id="SVGCleanerId_20_1_" x="420.807" y="370.812" style="fill:#242D3C;" width="1.097" height="4.937"/> </g><g> <rect id="SVGCleanerId_21_1_" x="452.629" y="370.812" style="fill:#242D3C;" width="1.097" height="4.937"/> </g><g> <rect x="28.541" y="371.243" style="fill:#06B2B8;" width="21.952" height="25.072"/> <rect x="60.362" y="371.243" style="fill:#06B2B8;" width="21.942" height="44.591"/> <rect x="92.184" y="371.243" style="fill:#06B2B8;" width="21.942" height="36.949"/> <rect x="124.006" y="371.243" style="fill:#06B2B8;" width="21.949" height="50.142"/> <rect x="155.819" y="371.243" style="fill:#06B2B8;" width="21.946" height="63.494"/> <rect x="187.631" y="371.243" style="fill:#06B2B8;" width="21.949" height="38.508"/> <rect x="219.463" y="371.243" style="fill:#06B2B8;" width="21.946" height="52.05"/> <rect x="251.285" y="371.243" style="fill:#06B2B8;" width="21.939" height="66.445"/> <rect x="283.098" y="371.243" style="fill:#06B2B8;" width="21.942" height="59.163"/> <rect x="314.92" y="371.243" style="fill:#06B2B8;" width="21.946" height="77.899"/> <rect x="346.732" y="371.243" style="fill:#06B2B8;" width="21.952" height="32.534"/> <rect x="378.564" y="371.243" style="fill:#06B2B8;" width="21.939" height="64.277"/> <rect x="410.377" y="371.243" style="fill:#06B2B8;" width="21.946" height="85.699"/> <rect x="442.199" y="371.243" style="fill:#06B2B8;" width="21.942" height="92.817"/> </g></symbol><symbol id="line-chart" viewBox="0 0 512 512"><title>line-chart</title><circle style="fill:#FFD55C;" cx="230.148" cy="256.001" r="230.138"/><path style="fill:#FFC640;" d="M451.194,192l-40.143,70.277l-51.218-25.664l-77.615,129.322l-53.018-53.015l-51.126,25.506 l-75.809-75.695l-51.082,51.085L0.213,264.268c-0.099-2.749-0.21-5.494-0.21-8.269c0,127.1,103.039,230.14,230.14,230.14 c127.104,0,230.14-103.039,230.14-230.14C460.282,233.782,457.07,212.326,451.194,192z"/><path style="fill:#FFB733;" d="M0.4,269.378v-12.982H25.23v24.826H1.385c0.029,0.265,0.061,0.529,0.091,0.794H25.23v24.715H5.626 c0.059,0.264,0.113,0.53,0.173,0.794H25.23v24.829H12.991c0.093,0.265,0.186,0.529,0.28,0.794H25.23v24.715h-1.494 c0.131,0.265,0.263,0.529,0.394,0.794h1.099v2.207c0.259,0.505,0.531,1.002,0.794,1.504v-3.711h24.712v24.823H38.523 c0.176,0.264,0.346,0.531,0.522,0.794h11.69v15.855c0.265,0.329,0.527,0.658,0.794,0.986v-16.84h24.826v24.715H58.237 c0.236,0.265,0.467,0.53,0.704,0.794h17.416v17.416c0.263,0.237,0.529,0.469,0.794,0.704v-18.12h24.715v24.829H85.028 c0.328,0.266,0.657,0.529,0.986,0.794h15.852v11.688c0.263,0.177,0.53,0.346,0.794,0.522v-12.21h24.826v24.715h-3.705 c0.502,0.263,1,0.534,1.504,0.794h2.201v1.096c0.265,0.132,0.528,0.264,0.794,0.394v-1.491h24.718v11.957 c0.265,0.094,0.529,0.187,0.794,0.28v-12.237h24.823v19.427c0.264,0.06,0.529,0.114,0.794,0.173v-19.6h24.718v23.751 c0.265,0.03,0.528,0.062,0.794,0.091v-23.842h24.826v24.826h-12.982c4.429,0.254,8.887,0.396,13.379,0.396s8.95-0.143,13.379-0.396 h-12.982v-24.826h24.829v23.842c0.265-0.029,0.529-0.061,0.794-0.091v-23.751h24.712v19.601c0.264-0.059,0.53-0.113,0.794-0.173 v-19.428h24.826v12.237c0.265-0.093,0.529-0.186,0.794-0.28v-11.957h24.712v1.494c0.265-0.131,0.529-0.263,0.794-0.394v-1.099h2.207 c0.504-0.259,1.002-0.531,1.504-0.794h-3.711v-24.715h24.829v12.213c0.264-0.176,0.531-0.346,0.794-0.522v-11.69h15.855 c0.329-0.265,0.658-0.527,0.986-0.794h-16.84v-24.829h24.715v18.123c0.264-0.236,0.53-0.467,0.794-0.704v-17.419h17.419 c0.237-0.263,0.469-0.529,0.704-0.794h-18.123v-24.715h24.826v16.844c0.266-0.328,0.529-0.657,0.794-0.986v-15.859h11.694 c0.177-0.263,0.346-0.53,0.522-0.794h-12.22v-24.825h24.715v3.711c0.263-0.502,0.534-1,0.794-1.504v-2.207h1.099 c0.132-0.265,0.264-0.528,0.394-0.794h-1.494v-24.715h11.959c0.094-0.265,0.187-0.529,0.28-0.794h-12.239v-24.829h19.431 c0.06-0.264,0.114-0.529,0.173-0.794h-19.604v-24.715h23.754c0.03-0.265,0.062-0.528,0.091-0.794h-23.845v-24.826h24.829v12.982 c0.254-4.429,0.396-8.887,0.396-13.379c0-4.493-0.143-8.95-0.396-13.379V255.6h-24.829v-24.826h23.845 c-0.029-0.265-0.061-0.529-0.091-0.794h-23.754v-24.715h19.604c-0.059-0.264-0.113-0.53-0.173-0.794h-19.431v-24.829h12.239 c-0.093-0.265-0.186-0.529-0.28-0.794h-11.959v-24.715h1.494c-0.131-0.265-0.263-0.529-0.394-0.794h-1.099v-2.207 c-0.259-0.505-0.531-1.002-0.794-1.504v3.711h-24.715v-24.823h12.216c-0.176-0.264-0.346-0.531-0.522-0.794h-11.694v-15.859 c-0.265-0.329-0.527-0.658-0.794-0.986v16.844h-24.826v-24.715h18.123c-0.236-0.264-0.467-0.53-0.704-0.794h-17.419V84.796 c-0.263-0.237-0.529-0.469-0.794-0.704v18.123h-24.715v-24.83h16.84c-0.328-0.266-0.657-0.529-0.986-0.794h-15.855v-11.69 c-0.263-0.177-0.53-0.347-0.794-0.522v12.213h-24.829V51.876h3.711c-0.502-0.263-1-0.534-1.504-0.794h-2.207v-1.099 c-0.265-0.132-0.528-0.264-0.794-0.394v1.494h-24.712V39.125c-0.265-0.094-0.529-0.187-0.794-0.28v12.237h-24.826V31.655 c-0.264-0.06-0.529-0.114-0.794-0.173v19.601h-24.712V27.332c-0.265-0.03-0.528-0.062-0.794-0.091v23.842h-24.829V26.256h12.982 c-4.429-0.254-8.887-0.396-13.379-0.396s-8.95,0.143-13.379,0.396h12.982v24.826h-24.826V27.241 c-0.265,0.029-0.529,0.061-0.794,0.091v23.751h-24.718v-19.6c-0.264,0.059-0.53,0.113-0.794,0.173v19.427h-24.823V38.846 c-0.265,0.093-0.529,0.186-0.794,0.28v11.957h-24.718v-1.491c-0.265,0.131-0.529,0.263-0.794,0.394v1.096h-2.201 c-0.504,0.259-1.002,0.531-1.504,0.794h3.705v24.715h-24.826V64.381c-0.264,0.176-0.531,0.346-0.794,0.522v11.689H86.013 c-0.329,0.265-0.658,0.527-0.986,0.794h16.837v24.829H77.149v-18.12c-0.264,0.236-0.53,0.467-0.794,0.704v17.416H58.94 c-0.237,0.263-0.469,0.529-0.704,0.794h18.12v24.715H51.529v-16.84c-0.267,0.328-0.529,0.657-0.794,0.986v15.855h-11.69 c-0.177,0.263-0.347,0.53-0.522,0.794h12.213v24.823H26.024v-3.711c-0.263,0.502-0.534,1-0.794,1.504v2.207H24.13 c-0.132,0.265-0.264,0.528-0.394,0.794h1.494v24.715H13.27c-0.094,0.265-0.187,0.529-0.28,0.794H25.23v24.829H5.799 c-0.06,0.264-0.114,0.529-0.173,0.794H25.23v24.715H1.476c-0.03,0.265-0.062,0.528-0.091,0.794H25.23v24.826H0.4v-12.982 c-0.254,4.429-0.396,8.887-0.396,13.379C0.004,260.494,0.146,264.949,0.4,269.378z M26.024,256.395h24.712v24.826H26.024V256.395z M102.658,307.525h24.826v24.829h-24.826V307.525z M101.865,332.354H77.149v-24.829h24.715V332.354z M229.746,282.016v24.715 h-24.826v-24.715H229.746z M204.919,281.222v-24.826h24.826v24.826H204.919z M230.54,282.016h24.829v24.715H230.54V282.016z M230.54,281.222v-24.826h24.829v24.826H230.54z M256.163,256.395h24.712v24.826h-24.712V256.395z M256.163,255.602v-24.826h24.712 v24.826H256.163z M255.37,255.602h-24.829v-24.826h24.829V255.602z M230.54,229.982v-24.715h24.829v24.715H230.54z M229.746,229.982 h-24.826v-24.715h24.826L229.746,229.982L229.746,229.982z M229.746,230.775v24.826h-24.826v-24.826H229.746z M204.126,255.602 h-24.718v-24.826h24.718V255.602z M204.126,256.395v24.826h-24.718v-24.826H204.126z M178.614,281.222h-24.823v-24.826h24.823 V281.222z M178.614,282.016v24.715h-24.823v-24.715H178.614z M179.407,282.016h24.718v24.715h-24.718V282.016z M204.126,307.525 v24.829h-24.718v-24.829H204.126z M204.919,307.525h24.826v24.829h-24.826V307.525z M229.746,333.148v24.715h-24.826v-24.715 H229.746z M230.54,333.148h24.829v24.715H230.54V333.148z M230.54,332.354v-24.829h24.829v24.829H230.54z M256.163,307.525h24.712 v24.829h-24.712V307.525z M256.163,306.731v-24.715h24.712v24.715H256.163z M281.669,282.016h24.826v24.715h-24.826V282.016z M281.669,281.222v-24.826h24.826v24.826H281.669z M307.289,256.395h24.712v24.826h-24.712V256.395z M307.289,255.602v-24.826 h24.712v24.826H307.289z M306.495,255.602h-24.826v-24.826h24.826V255.602z M281.669,229.982v-24.715h24.826v24.715H281.669z M280.875,229.982h-24.712v-24.715h24.712V229.982z M256.163,204.473v-24.829h24.712v24.829H256.163z M255.37,204.473h-24.829 v-24.829h24.829V204.473z M230.54,178.85v-24.715h24.829v24.715H230.54z M229.746,178.85h-24.826v-24.715h24.826L229.746,178.85 L229.746,178.85z M229.746,179.644v24.829h-24.826v-24.829H229.746z M204.126,204.473h-24.718v-24.829h24.718V204.473z M204.126,205.267v24.715h-24.718v-24.715H204.126z M178.614,229.982h-24.823v-24.715h24.823V229.982z M178.614,230.775v24.826 h-24.823v-24.826H178.614z M152.997,255.602h-24.718v-24.826h24.718V255.602z M152.997,256.395v24.826h-24.718v-24.826H152.997z M152.997,282.016v24.715h-24.718v-24.715H152.997z M152.997,307.525v24.829h-24.718v-24.829H152.997z M153.791,307.525h24.823 v24.829h-24.823V307.525z M178.614,333.148v24.715h-24.823v-24.715H178.614z M179.407,333.148h24.718v24.715h-24.718V333.148z M204.126,358.657v24.823h-24.718v-24.823H204.126z M204.919,358.657h24.826v24.823h-24.826V358.657z M230.54,358.657h24.829v24.823 H230.54V358.657z M256.163,358.657h24.712v24.823h-24.712V358.657z M256.163,357.863v-24.715h24.712v24.715H256.163z M281.669,333.148h24.826v24.715h-24.826V333.148z M281.669,332.354v-24.829h24.826v24.829H281.669z M307.289,307.525h24.712v24.829 h-24.712V307.525z M307.289,306.731v-24.715h24.712v24.715H307.289z M332.795,282.016h24.829v24.715h-24.829V282.016z M332.795,281.222v-24.826h24.829v24.826H332.795z M332.795,255.602v-24.826h24.829v24.826H332.795z M332.795,229.982v-24.715 h24.829v24.715H332.795z M332.001,229.982h-24.712v-24.715h24.712V229.982z M307.289,204.473v-24.829h24.712v24.829H307.289z M306.495,204.473h-24.826v-24.829h24.826V204.473z M281.669,178.85v-24.715h24.826v24.715H281.669z M280.875,178.85h-24.712 v-24.715h24.712V178.85z M256.163,153.34v-24.823h24.712v24.823H256.163z M255.37,153.34h-24.829v-24.823h24.829V153.34z M229.746,153.34h-24.826v-24.823h24.826L229.746,153.34L229.746,153.34z M204.126,153.34h-24.718v-24.823h24.718V153.34z M204.126,154.134v24.715h-24.718v-24.715H204.126z M178.614,178.85h-24.823v-24.715h24.823V178.85z M178.614,179.644v24.829 h-24.823v-24.829H178.614z M152.997,204.473h-24.718v-24.829h24.718V204.473z M152.997,205.267v24.715h-24.718v-24.715H152.997z M127.485,229.982h-24.826v-24.715h24.826V229.982z M127.485,230.775v24.826h-24.826v-24.826H127.485z M127.485,256.395v24.826 h-24.826v-24.826H127.485z M127.485,282.016v24.715h-24.826v-24.715H127.485z M127.485,333.148v24.715h-24.826v-24.715H127.485z M128.279,333.148h24.718v24.715h-24.718V333.148z M152.997,358.657v24.823h-24.718v-24.823H152.997z M153.791,358.657h24.823 v24.823h-24.823V358.657z M178.614,384.273v24.715h-24.823v-24.715H178.614z M179.407,384.273h24.718v24.715h-24.718V384.273z M204.919,384.273h24.826v24.715h-24.826V384.273z M230.54,384.273h24.829v24.715H230.54V384.273z M256.163,384.273h24.712v24.715 h-24.712V384.273z M281.669,384.273h24.826v24.715h-24.826V384.273z M281.669,383.481v-24.823h24.826v24.823H281.669z M307.289,358.657h24.712v24.823h-24.712V358.657z M307.289,357.863v-24.715h24.712v24.715H307.289z M332.795,333.148h24.829v24.715 h-24.829V333.148z M332.795,332.354v-24.829h24.829v24.829H332.795z M358.418,307.525h24.715v24.829h-24.715V307.525z M358.418,306.731v-24.715h24.715v24.715H358.418z M358.418,281.222v-24.826h24.715v24.826H358.418z M358.418,255.602v-24.826 h24.715v24.826H358.418z M358.418,229.982v-24.715h24.715v24.715H358.418z M358.418,204.473v-24.829h24.715v24.829H358.418z M357.625,204.473h-24.83v-24.829h24.829L357.625,204.473L357.625,204.473z M332.795,178.85v-24.715h24.829v24.715H332.795z M332.001,178.85h-24.712v-24.715h24.712V178.85z M307.289,153.34v-24.823h24.712v24.823H307.289z M306.495,153.34h-24.826v-24.823 h24.826V153.34z M281.669,127.723v-24.715h24.826v24.715H281.669z M280.875,127.723h-24.712v-24.715h24.712V127.723z M255.37,127.723h-24.829v-24.715h24.829V127.723z M229.746,127.723h-24.826v-24.715h24.826L229.746,127.723L229.746,127.723z M204.126,127.723h-24.718v-24.715h24.718V127.723z M178.614,127.723h-24.823v-24.715h24.823V127.723z M178.614,128.517v24.823 h-24.823v-24.823H178.614z M152.997,153.34h-24.718v-24.823h24.718V153.34z M152.997,154.134v24.715h-24.718v-24.715H152.997z M127.485,178.85h-24.826v-24.715h24.826V178.85z M127.485,179.644v24.829h-24.826v-24.829H127.485z M101.865,204.473H77.149 v-24.829h24.715V204.473z M101.865,205.267v24.715H77.149v-24.715H101.865z M101.865,230.775v24.826H77.149v-24.826H101.865z M101.865,256.395v24.826H77.149v-24.826H101.865z M101.865,282.016v24.715H77.149v-24.715H101.865z M76.355,306.731H51.529v-24.715 h24.826C76.355,282.016,76.355,306.731,76.355,306.731z M76.355,307.525v24.829H51.529v-24.829H76.355z M76.355,333.148v24.715 H51.529v-24.715H76.355z M77.149,333.148h24.715v24.715H77.149V333.148z M101.865,358.657v24.823H77.149v-24.823H101.865z M102.658,358.657h24.826v24.823h-24.826V358.657z M127.485,384.273v24.715h-24.826v-24.715H127.485z M128.279,384.273h24.718 v24.715h-24.718V384.273z M152.997,409.783v24.829h-24.718v-24.829H152.997z M153.791,409.783h24.823v24.829h-24.823V409.783z M179.407,409.783h24.718v24.829h-24.718V409.783z M204.919,409.783h24.826v24.829h-24.826V409.783z M230.54,409.783h24.829v24.829 H230.54V409.783z M256.163,409.783h24.712v24.829h-24.712V409.783z M281.669,409.783h24.826v24.829h-24.826V409.783z M307.289,409.783h24.712v24.829h-24.712V409.783z M307.289,408.989v-24.715h24.712v24.715H307.289z M332.795,384.273h24.829v24.715 h-24.829V384.273z M332.795,383.481v-24.823h24.829v24.823H332.795z M358.418,358.657h24.715v24.823h-24.715V358.657z M358.418,357.863v-24.715h24.715v24.715H358.418z M383.927,333.148h24.826v24.715h-24.826V333.148z M383.927,332.354v-24.829 h24.826v24.829H383.927z M383.927,306.731v-24.715h24.826v24.715H383.927z M383.927,281.222v-24.826h24.826v24.826H383.927z M383.927,255.602v-24.826h24.826v24.826H383.927z M383.927,229.982v-24.715h24.826v24.715H383.927z M383.927,204.473v-24.829 h24.826v24.829H383.927z M383.927,178.85v-24.715h24.826v24.715H383.927z M383.133,178.85h-24.715v-24.715h24.715V178.85z M358.418,153.34v-24.823h24.715v24.823H358.418z M357.625,153.34h-24.83v-24.823h24.829L357.625,153.34L357.625,153.34z M332.795,127.723v-24.715h24.829v24.715H332.795z M332.001,127.723h-24.712v-24.715h24.712V127.723z M307.289,102.215v-24.83 h24.712v24.829L307.289,102.215L307.289,102.215z M306.495,102.215h-24.826v-24.83h24.826V102.215z M280.875,102.215h-24.712v-24.83 h24.712V102.215z M255.37,102.215h-24.829v-24.83h24.829V102.215z M229.746,102.215h-24.826v-24.83h24.826L229.746,102.215 L229.746,102.215z M204.126,102.215h-24.718v-24.83h24.718V102.215z M178.614,102.215h-24.823v-24.83h24.823V102.215z M152.997,102.215h-24.718v-24.83h24.718V102.215z M152.997,103.008v24.715h-24.718v-24.715H152.997z M127.485,127.723h-24.826 v-24.715h24.826V127.723z M127.485,128.517v24.823h-24.826v-24.823H127.485z M101.865,153.34H77.149v-24.823h24.715V153.34z M101.865,154.134v24.715H77.149v-24.715H101.865z M76.355,178.85H51.529v-24.715h24.826 C76.355,154.134,76.355,178.85,76.355,178.85z M76.355,179.644v24.829H51.529v-24.829H76.355z M76.355,205.267v24.715H51.529 v-24.715H76.355z M76.355,230.775v24.826H51.529v-24.826H76.355z M76.355,256.395v24.826H51.529v-24.826H76.355z M26.024,282.016 h24.712v24.715H26.024V282.016z M26.024,307.525h24.712v24.829H26.024V307.525z M26.024,357.863v-24.715h24.712v24.715H26.024z M51.529,383.481v-24.823h24.826v24.823H51.529z M77.149,408.989v-24.715h24.715v24.715H77.149z M102.658,434.612v-24.829h24.826 v24.829H102.658z M128.279,460.121v-24.715h24.718v24.715H128.279z M153.791,460.121v-24.715h24.823v24.715H153.791z M179.407,460.121v-24.715h24.718v24.715H179.407z M204.919,460.121v-24.715h24.826v24.715H204.919z M230.54,460.121v-24.715h24.829 v24.715H230.54z M256.163,460.121v-24.715h24.712v24.715H256.163z M281.669,460.121v-24.715h24.826v24.715H281.669z M332.001,460.121h-24.712v-24.715h24.712V460.121z M357.625,434.612h-24.83v-24.829h24.829L357.625,434.612L357.625,434.612z M383.133,408.989h-24.715v-24.715h24.715V408.989z M408.753,383.481h-24.826v-24.823h24.826V383.481z M434.263,357.863h-24.715 v-24.715h24.715V357.863z M434.263,332.354h-24.715v-24.829h24.715V332.354z M434.263,306.731h-24.715v-24.715h24.715V306.731z M434.263,281.222h-24.715v-24.826h24.715V281.222z M434.263,255.602h-24.715v-24.826h24.715V255.602z M434.263,229.982h-24.715 v-24.715h24.715V229.982z M434.263,204.473h-24.715v-24.829h24.715V204.473z M434.263,154.134v24.715h-24.715v-24.715H434.263z M408.753,128.517v24.823h-24.826v-24.823H408.753z M383.133,103.008v24.715h-24.715v-24.715H383.133z M357.625,77.385v24.829 h-24.83V77.385H357.625z M332.001,51.876v24.715h-24.712V51.876H332.001z M306.495,51.876v24.715h-24.826V51.876H306.495z M280.875,51.876v24.715h-24.712V51.876H280.875z M255.37,51.876v24.715h-24.829V51.876H255.37z M229.746,51.876v24.715h-24.826 V51.876H229.746z M204.126,51.876v24.715h-24.718V51.876H204.126z M178.614,51.876v24.715h-24.823V51.876H178.614z M128.279,51.876 h24.718v24.715h-24.718V51.876z M102.658,77.385h24.826v24.829h-24.826V77.385z M77.149,103.008h24.715v24.715H77.149V103.008z M51.529,128.517h24.826v24.823H51.529V128.517z M26.024,154.134h24.712v24.715H26.024V154.134z M26.024,179.644h24.712v24.829 H26.024V179.644z M26.024,205.267h24.712v24.715H26.024V205.267z M26.024,230.775h24.712v24.826H26.024V230.775z"/><path style="fill:#FFFFFF;" d="M451.194,192c-1.2-4.158-2.502-8.266-3.927-12.323l-40.013,70.042l-51.044-25.579l-75.883,126.434 l-49.247-49.237l-51.13,25.505l-77.698-77.578l-51.17,51.176L0.13,250.91C0.092,252.609,0,254.294,0,256.002 c0,2.774,0.111,5.52,0.21,8.269l50.971,49.545l51.082-51.085l75.81,75.695l51.126-25.506l53.018,53.015l77.615-129.323 l51.218,25.664L451.194,192z"/><path style="fill:#D9D8D7;" d="M511.831,139.542l-11.688-42.831l-4.584,1.254c-0.006,0-0.013,0.003-0.019,0.006l-38.229,10.427 c-2.536,0.695-4.034,3.31-3.342,5.847c0.692,2.539,3.301,4.034,5.85,3.342l27.15-7.409l-39.701,69.502 c1.425,4.053,2.727,8.165,3.927,12.323l44.04-77.098l7.406,27.15c0.581,2.117,2.499,3.508,4.59,3.508 c0.415,0,0.838-0.057,1.257-0.168C511.027,144.701,512.522,142.081,511.831,139.542z"/><circle style="fill:#FF6D3B;" cx="281.267" cy="358.258" r="17.066"/><circle style="fill:#FFFFFF;" cx="281.277" cy="358.258" r="8.866"/><circle style="fill:#242D3C;" cx="102.257" cy="256.001" r="17.066"/><circle style="fill:#FFFFFF;" cx="102.257" cy="256.001" r="8.866"/></symbol><symbol id="pie-chart-1" viewBox="0 0 356.923 356.923"><title>pie-chart-1</title><circle style="fill:#FFD55C;" cx="178.462" cy="178.462" r="178.462"/><g> <path style="fill:#FFFFFF;" d="M182.447,56.539c0,0.766-0.625,1.371-1.393,1.371c-0.761,0-1.388-0.606-1.388-1.371 c0-0.761,0.63-1.388,1.388-1.388C181.822,55.148,182.447,55.778,182.447,56.539z"/> <path style="fill:#FFFFFF;" d="M175.894,56.655c0.044,0.766-0.544,1.388-1.302,1.435c-0.758,0.047-1.418-0.537-1.438-1.302 c-0.049-0.763,0.534-1.415,1.302-1.46C175.217,55.284,175.87,55.892,175.894,56.655z"/> <path style="fill:#FFFFFF;" d="M169.381,57.078c0.086,0.766-0.453,1.438-1.211,1.529c-0.766,0.066-1.433-0.47-1.524-1.233 c-0.091-0.768,0.47-1.435,1.231-1.526C168.64,55.759,169.312,56.318,169.381,57.078z"/> <path style="fill:#FFFFFF;" d="M162.91,57.866c0.135,0.761-0.399,1.462-1.14,1.573c-0.766,0.135-1.457-0.404-1.59-1.15 c-0.116-0.761,0.404-1.457,1.164-1.59C162.082,56.583,162.799,57.1,162.91,57.866z"/> <path style="fill:#FFFFFF;" d="M156.49,58.988c0.158,0.738-0.313,1.482-1.078,1.617c-0.741,0.177-1.482-0.32-1.639-1.058 c-0.15-0.746,0.318-1.482,1.054-1.639C155.596,57.755,156.313,58.225,156.49,58.988z"/> <path style="fill:#FFFFFF;" d="M150.114,60.423c0.197,0.746-0.226,1.504-0.985,1.706c-0.721,0.182-1.487-0.249-1.684-0.985 c-0.202-0.743,0.246-1.504,0.985-1.706C149.174,59.259,149.932,59.682,150.114,60.423z"/> <path style="fill:#FFFFFF;" d="M143.828,62.22c0.251,0.716-0.14,1.499-0.874,1.753c-0.741,0.224-1.504-0.177-1.75-0.901 c-0.222-0.716,0.155-1.524,0.894-1.75C142.818,61.1,143.606,61.479,143.828,62.22z"/> <path style="fill:#FFFFFF;" d="M137.679,64.332c0.268,0.716-0.091,1.502-0.812,1.794c-0.716,0.268-1.524-0.089-1.794-0.812 c-0.273-0.714,0.091-1.519,0.807-1.794C136.601,63.254,137.381,63.611,137.679,64.332z"/> <path style="fill:#FFFFFF;" d="M131.611,66.754c0.313,0.697,0,1.529-0.716,1.844c-0.672,0.29-1.509-0.027-1.817-0.721 c-0.318-0.694,0-1.526,0.697-1.839C130.491,65.745,131.303,66.063,131.611,66.754z"/> <path style="fill:#FFFFFF;" d="M125.689,69.494c0.357,0.667,0.091,1.524-0.606,1.863c-0.672,0.337-1.509,0.066-1.861-0.603 c-0.364-0.677-0.071-1.529,0.601-1.866C124.514,68.551,125.327,68.822,125.689,69.494z"/> <path style="fill:#FFFFFF;" d="M119.914,72.549c0.384,0.672,0.162,1.504-0.519,1.886c-0.645,0.382-1.499,0.158-1.886-0.49 c-0.374-0.677-0.155-1.529,0.514-1.886C118.683,71.648,119.535,71.877,119.914,72.549z"/> <path style="fill:#FFFFFF;" d="M114.326,75.894c0.399,0.65,0.222,1.504-0.409,1.905c-0.65,0.431-1.524,0.249-1.922-0.401 c-0.409-0.625-0.236-1.484,0.399-1.908C113.044,75.067,113.898,75.244,114.326,75.894z"/> <path style="fill:#FFFFFF;" d="M108.889,79.53c0.453,0.61,0.313,1.484-0.318,1.935c-0.601,0.45-1.472,0.313-1.932-0.295 c-0.443-0.625-0.308-1.482,0.318-1.952C107.586,78.794,108.438,78.927,108.889,79.53z"/> <path style="fill:#FFFFFF;" d="M103.682,83.463c0.475,0.578,0.384,1.46-0.226,1.925c-0.581,0.495-1.462,0.409-1.927-0.197 c-0.495-0.61-0.404-1.462,0.197-1.952C102.316,82.764,103.188,82.853,103.682,83.463z"/> <path style="fill:#FFFFFF;" d="M98.654,87.636c0.514,0.564,0.475,1.438-0.091,1.957c-0.581,0.514-1.438,0.473-1.957-0.111 c-0.514-0.566-0.465-1.438,0.116-1.957C97.26,87.008,98.159,87.052,98.654,87.636z"/> <path style="fill:#FFFFFF;" d="M93.89,92.081c0.544,0.539,0.544,1.393,0,1.932c-0.559,0.564-1.438,0.564-1.977,0 c-0.534-0.539-0.534-1.393,0-1.932C92.453,91.525,93.332,91.525,93.89,92.081z"/> <path style="fill:#FFFFFF;" d="M89.332,96.756c0.564,0.514,0.606,1.388,0.116,1.952c-0.514,0.564-1.388,0.606-1.982,0.111 c-0.554-0.514-0.601-1.391-0.091-1.974C87.874,96.305,88.77,96.239,89.332,96.756z"/> <path style="fill:#FFFFFF;" d="M85.049,101.671c0.576,0.468,0.667,1.346,0.197,1.954c-0.465,0.586-1.366,0.672-1.952,0.197 c-0.586-0.47-0.677-1.366-0.202-1.95C83.567,101.29,84.438,101.201,85.049,101.671z"/> <path style="fill:#FFFFFF;" d="M81.004,106.811c0.63,0.455,0.766,1.305,0.313,1.935c-0.448,0.63-1.322,0.761-1.932,0.313 c-0.625-0.453-0.761-1.322-0.308-1.952C79.52,106.501,80.374,106.363,81.004,106.811z"/> <path style="fill:#FFFFFF;" d="M77.25,112.135c0.655,0.428,0.832,1.28,0.404,1.908c-0.423,0.65-1.275,0.852-1.903,0.423 c-0.65-0.423-0.832-1.28-0.404-1.903C75.749,111.911,76.601,111.729,77.25,112.135z"/> <path style="fill:#FFFFFF;" d="M73.775,117.681c0.672,0.359,0.894,1.214,0.514,1.883c-0.379,0.655-1.236,0.903-1.908,0.5 c-0.655-0.384-0.874-1.216-0.495-1.893C72.268,117.499,73.12,117.275,73.775,117.681z"/> <path style="fill:#FFFFFF;" d="M70.612,123.385c0.667,0.337,0.938,1.167,0.601,1.839c-0.357,0.697-1.186,0.965-1.861,0.608 c-0.692-0.34-0.967-1.174-0.606-1.866C69.081,123.294,69.913,123.023,70.612,123.385z"/> <path style="fill:#FFFFFF;" d="M67.712,129.218c0.716,0.32,1.034,1.125,0.716,1.844c-0.313,0.694-1.12,1.009-1.836,0.694 c-0.672-0.315-0.99-1.122-0.672-1.814C66.206,129.218,67.038,128.908,67.712,129.218z"/> <path style="fill:#FFFFFF;" d="M65.15,135.237c0.726,0.268,1.081,1.078,0.807,1.772c-0.263,0.724-1.078,1.078-1.794,0.812 c-0.721-0.295-1.078-1.078-0.783-1.794C63.643,135.306,64.433,134.966,65.15,135.237z"/> <path style="fill:#FFFFFF;" d="M62.91,141.346c0.736,0.251,1.125,1.034,0.898,1.75c-0.231,0.719-1.034,1.125-1.755,0.901 c-0.721-0.254-1.12-1.036-0.898-1.758C61.403,141.526,62.193,141.122,62.91,141.346z"/> <path style="fill:#FFFFFF;" d="M60.994,147.589c0.741,0.202,1.196,0.965,0.967,1.703c-0.182,0.719-0.938,1.174-1.684,0.985 c-0.741-0.224-1.186-0.962-0.985-1.706C59.495,147.838,60.256,147.409,60.994,147.589z"/> <path style="fill:#FFFFFF;" d="M59.404,153.918c0.736,0.158,1.211,0.898,1.054,1.639c-0.158,0.741-0.871,1.233-1.639,1.078 c-0.741-0.155-1.211-0.894-1.078-1.639C57.922,154.235,58.639,153.765,59.404,153.918z"/> <path style="fill:#FFFFFF;" d="M58.149,160.318c0.736,0.116,1.255,0.83,1.145,1.595c-0.111,0.763-0.832,1.255-1.595,1.142 c-0.766-0.111-1.26-0.827-1.15-1.593C56.665,160.721,57.386,160.209,58.149,160.318z"/> <path style="fill:#FFFFFF;" d="M57.201,166.789c0.766,0.086,1.322,0.761,1.236,1.524c-0.062,0.766-0.741,1.322-1.504,1.231 c-0.761-0.086-1.322-0.761-1.26-1.519C55.769,167.254,56.438,166.72,57.201,166.789z"/> <path style="fill:#FFFFFF;" d="M56.62,173.297c0.766,0.025,1.346,0.67,1.322,1.46c-0.044,0.763-0.692,1.349-1.457,1.297 c-0.77-0.047-1.351-0.692-1.302-1.455C55.202,173.836,55.86,173.255,56.62,173.297z"/> <path style="fill:#FFFFFF;" d="M56.394,179.808c0.766,0,1.393,0.606,1.376,1.393c0,0.761-0.61,1.371-1.376,1.371 c-0.766,0-1.388-0.61-1.388-1.371C55.006,180.414,55.631,179.808,56.394,179.808z"/> <path style="fill:#FFFFFF;" d="M56.485,186.341c0.766-0.044,1.413,0.539,1.457,1.302c0.025,0.766-0.559,1.418-1.322,1.462 c-0.761,0.044-1.418-0.564-1.438-1.327C55.134,187.015,55.717,186.388,56.485,186.341z"/> <path style="fill:#FFFFFF;" d="M56.933,192.854c0.766-0.089,1.442,0.468,1.504,1.214c0.086,0.761-0.47,1.462-1.236,1.529 c-0.766,0.086-1.433-0.455-1.529-1.216C55.611,193.615,56.172,192.945,56.933,192.854z"/> <path style="fill:#FFFFFF;" d="M57.696,199.323c0.766-0.116,1.487,0.401,1.595,1.167c0.111,0.763-0.409,1.46-1.145,1.575 c-0.766,0.13-1.487-0.409-1.6-1.15C56.438,200.155,56.933,199.454,57.696,199.323z"/> <path style="fill:#FFFFFF;" d="M58.818,205.762c0.77-0.155,1.482,0.315,1.639,1.061c0.158,0.761-0.318,1.482-1.054,1.659 c-0.766,0.138-1.482-0.335-1.664-1.078C57.605,206.639,58.078,205.92,58.818,205.762z"/> <path style="fill:#FFFFFF;" d="M60.278,212.121c0.746-0.18,1.499,0.222,1.684,0.985c0.207,0.721-0.226,1.487-0.98,1.686 c-0.726,0.202-1.487-0.254-1.689-0.965C59.092,213.086,59.54,212.32,60.278,212.121z"/> <path style="fill:#FFFFFF;" d="M62.053,218.405c0.721-0.246,1.524,0.158,1.755,0.896c0.226,0.724-0.187,1.484-0.898,1.733 c-0.716,0.246-1.504-0.16-1.755-0.879C60.933,219.419,61.332,218.629,62.053,218.405z"/> <path style="fill:#FFFFFF;" d="M64.162,224.581c0.716-0.293,1.529,0.066,1.794,0.783c0.273,0.716-0.081,1.526-0.807,1.794 c-0.716,0.273-1.504-0.091-1.77-0.807C63.087,225.634,63.441,224.852,64.162,224.581z"/> <path style="fill:#FFFFFF;" d="M66.592,230.619c0.716-0.293,1.524,0,1.836,0.716c0.318,0.697,0,1.529-0.716,1.841 c-0.672,0.293-1.504-0.02-1.817-0.716C65.578,231.764,65.918,230.932,66.592,230.619z"/> <path style="fill:#FFFFFF;" d="M69.327,236.549c0.697-0.34,1.529-0.066,1.886,0.606c0.337,0.697,0.066,1.529-0.62,1.866 c-0.677,0.357-1.509,0.089-1.846-0.61C68.384,237.738,68.66,236.906,69.327,236.549z"/> <path style="fill:#FFFFFF;" d="M72.379,242.341c0.672-0.404,1.529-0.177,1.908,0.492c0.379,0.677,0.158,1.504-0.514,1.886 c-0.677,0.384-1.504,0.155-1.89-0.492C71.505,243.552,71.727,242.698,72.379,242.341z"/> <path style="fill:#FFFFFF;" d="M75.749,247.931c0.63-0.426,1.482-0.249,1.903,0.406c0.428,0.65,0.251,1.499-0.404,1.908 c-0.65,0.423-1.499,0.224-1.903-0.409C74.919,249.211,75.102,248.359,75.749,247.931z"/> <path style="fill:#FFFFFF;" d="M79.385,253.342c0.61-0.45,1.487-0.315,1.932,0.315c0.453,0.628,0.318,1.484-0.313,1.93 c-0.63,0.446-1.487,0.315-1.927-0.313C78.624,254.668,78.759,253.792,79.385,253.342z"/> <path style="fill:#FFFFFF;" d="M83.294,258.572c0.586-0.49,1.462-0.401,1.932,0.204c0.49,0.578,0.399,1.46-0.177,1.93 c-0.61,0.495-1.482,0.409-1.957-0.177C82.597,259.924,82.708,259.042,83.294,258.572z"/> <path style="fill:#FFFFFF;" d="M87.466,263.582c0.591-0.514,1.438-0.47,1.952,0.089c0.519,0.583,0.475,1.46-0.086,1.977 c-0.564,0.497-1.457,0.45-1.957-0.113C86.865,264.975,86.914,264.096,87.466,263.582z"/> <path style="fill:#FFFFFF;" d="M91.914,268.364c0.539-0.542,1.418-0.542,1.952,0c0.566,0.537,0.549,1.413,0,1.952 c-0.534,0.542-1.413,0.542-1.952,0C91.38,269.78,91.38,268.901,91.914,268.364z"/> <path style="fill:#FFFFFF;" d="M96.606,272.923c0.519-0.583,1.376-0.633,1.957-0.111c0.566,0.514,0.606,1.388,0.091,1.952 c-0.495,0.559-1.393,0.601-1.957,0.086C96.14,274.358,96.091,273.482,96.606,272.923z"/> <path style="fill:#FFFFFF;" d="M101.529,277.211c0.465-0.608,1.346-0.697,1.927-0.204c0.586,0.473,0.702,1.349,0.202,1.935 c-0.47,0.606-1.342,0.692-1.952,0.202C101.125,278.668,101.034,277.794,101.529,277.211z"/> <path style="fill:#FFFFFF;" d="M106.639,281.226c0.463-0.623,1.307-0.761,1.932-0.313c0.63,0.45,0.77,1.327,0.318,1.932 c-0.453,0.628-1.302,0.768-1.932,0.313C106.331,282.713,106.198,281.856,106.639,281.226z"/> <path style="fill:#FFFFFF;" d="M111.995,284.999c0.399-0.65,1.25-0.854,1.903-0.423c0.65,0.423,0.827,1.28,0.404,1.905 c-0.428,0.652-1.282,0.834-1.908,0.428C111.742,286.484,111.557,285.63,111.995,284.999z"/> <path style="fill:#FFFFFF;" d="M117.509,288.46c0.384-0.674,1.241-0.898,1.886-0.495c0.682,0.359,0.903,1.214,0.519,1.886 c-0.379,0.655-1.231,0.881-1.908,0.497C117.356,289.989,117.135,289.135,117.509,288.46z"/> <path style="fill:#FFFFFF;" d="M123.222,291.648c0.352-0.697,1.164-0.967,1.861-0.63c0.667,0.357,0.962,1.186,0.606,1.886 c-0.359,0.677-1.196,0.945-1.866,0.586C123.129,293.15,122.855,292.322,123.222,291.648z"/> <path style="fill:#FFFFFF;" d="M129.078,294.518c0.288-0.714,1.125-1.029,1.817-0.714c0.716,0.315,1.009,1.147,0.716,1.839 c-0.308,0.697-1.14,1.012-1.836,0.697C129.078,296.025,128.761,295.217,129.078,294.518z"/> <path style="fill:#FFFFFF;" d="M135.072,297.081c0.268-0.716,1.078-1.078,1.794-0.81c0.721,0.295,1.081,1.078,0.788,1.799 c-0.273,0.716-1.054,1.076-1.775,0.802C135.163,298.612,134.799,297.797,135.072,297.081z"/> <path style="fill:#FFFFFF;" d="M141.201,299.326c0.246-0.714,1.009-1.118,1.73-0.894c0.736,0.244,1.145,1.031,0.894,1.75 c-0.222,0.719-1.009,1.125-1.75,0.896C141.356,300.83,140.958,300.049,141.201,299.326z"/> <path style="fill:#FFFFFF;" d="M147.446,301.26c0.197-0.743,0.962-1.191,1.684-0.99c0.741,0.202,1.182,0.943,0.985,1.706 c-0.207,0.716-0.967,1.169-1.706,0.97C147.692,302.735,147.244,302.001,147.446,301.26z"/> <path style="fill:#FFFFFF;" d="M153.775,302.831c0.158-0.721,0.874-1.211,1.639-1.058c0.741,0.155,1.211,0.894,1.054,1.639 c-0.155,0.763-0.871,1.236-1.639,1.081C154.092,304.332,153.625,303.591,153.775,302.831z"/> <path style="fill:#FFFFFF;" d="M160.177,304.108c0.111-0.763,0.827-1.278,1.568-1.142c0.766,0.111,1.275,0.805,1.164,1.573 c-0.13,0.761-0.827,1.253-1.59,1.164C160.581,305.568,160.039,304.852,160.177,304.108z"/> <path style="fill:#FFFFFF;" d="M166.644,305.029c0.062-0.766,0.761-1.302,1.499-1.236c0.766,0.091,1.322,0.77,1.236,1.529 c-0.091,0.746-0.761,1.302-1.529,1.236C167.092,306.466,166.553,305.792,166.644,305.029z"/> <path style="fill:#FFFFFF;" d="M173.13,305.61c0.044-0.761,0.702-1.346,1.462-1.3s1.346,0.674,1.302,1.435 c-0.049,0.768-0.677,1.351-1.438,1.327C173.689,307.028,173.105,306.38,173.13,305.61z"/> <path style="fill:#FFFFFF;" d="M179.663,305.861c0-0.763,0.606-1.388,1.376-1.388c0.783,0,1.386,0.628,1.386,1.388 c0,0.766-0.625,1.371-1.371,1.371C180.268,307.232,179.663,306.624,179.663,305.861z"/> <path style="fill:#FFFFFF;" d="M186.178,305.745c-0.049-0.761,0.539-1.413,1.302-1.435c0.761-0.047,1.438,0.542,1.482,1.3 c0.025,0.77-0.566,1.418-1.327,1.462C186.865,307.116,186.22,306.513,186.178,305.745z"/> <path style="fill:#FFFFFF;" d="M192.687,305.322c-0.066-0.761,0.465-1.46,1.236-1.529c0.761-0.066,1.462,0.47,1.524,1.236 c0.066,0.763-0.47,1.438-1.236,1.529C193.447,306.646,192.77,306.087,192.687,305.322z"/> <path style="fill:#FFFFFF;" d="M199.173,304.539c-0.106-0.768,0.379-1.462,1.145-1.573c0.766-0.135,1.487,0.379,1.578,1.142 c0.135,0.743-0.384,1.46-1.125,1.593C200,305.812,199.289,305.297,199.173,304.539z"/> <path style="fill:#FFFFFF;" d="M205.62,303.414c-0.182-0.746,0.293-1.484,1.034-1.639c0.761-0.155,1.504,0.337,1.664,1.058 c0.155,0.761-0.322,1.499-1.081,1.664C206.496,304.65,205.76,304.175,205.62,303.414z"/> <path style="fill:#FFFFFF;" d="M211.975,301.977c-0.202-0.766,0.222-1.504,0.962-1.706c0.746-0.202,1.504,0.249,1.716,0.99 c0.172,0.741-0.258,1.477-0.994,1.686C212.913,303.143,212.172,302.693,211.975,301.977z"/> <path style="fill:#FFFFFF;" d="M218.235,300.18c-0.222-0.719,0.158-1.506,0.903-1.75c0.716-0.224,1.499,0.18,1.745,0.894 c0.226,0.724-0.177,1.504-0.894,1.753C219.269,301.305,218.486,300.898,218.235,300.18z"/> <path style="fill:#FFFFFF;" d="M224.433,298.073c-0.293-0.721,0.071-1.529,0.783-1.799c0.706-0.268,1.509,0.094,1.78,0.81 c0.288,0.716-0.091,1.529-0.783,1.794C225.487,299.146,224.702,298.789,224.433,298.073z"/> <path style="fill:#FFFFFF;" d="M230.496,295.643c-0.332-0.692-0.02-1.524,0.677-1.839c0.716-0.293,1.524,0,1.841,0.714 c0.313,0.697,0,1.529-0.716,1.822C231.596,296.657,230.794,296.342,230.496,295.643z"/> <path style="fill:#FFFFFF;" d="M236.404,292.903c-0.332-0.697-0.091-1.529,0.606-1.863c0.667-0.359,1.499-0.089,1.841,0.608 c0.359,0.672,0.091,1.499-0.581,1.863C237.59,293.849,236.741,293.583,236.404,292.903z"/> <path style="fill:#FFFFFF;" d="M242.174,289.849c-0.379-0.67-0.155-1.526,0.495-1.886c0.667-0.379,1.529-0.18,1.886,0.495 c0.404,0.674,0.177,1.529-0.49,1.888C243.38,290.747,242.553,290.523,242.174,289.849z"/> <path style="fill:#FFFFFF;" d="M247.783,286.484c-0.423-0.628-0.246-1.484,0.399-1.888c0.64-0.423,1.489-0.246,1.918,0.404 c0.399,0.63,0.222,1.484-0.409,1.91C249.049,287.335,248.182,287.134,247.783,286.484z"/> <path style="fill:#FFFFFF;" d="M253.201,282.846c-0.458-0.606-0.347-1.484,0.288-1.932c0.625-0.423,1.482-0.31,1.927,0.313 c0.453,0.63,0.313,1.487-0.288,1.932C254.496,283.614,253.649,283.473,253.201,282.846z"/> <path style="fill:#FFFFFF;" d="M258.427,278.942c-0.49-0.586-0.404-1.462,0.182-1.935c0.601-0.492,1.482-0.404,1.952,0.204 c0.47,0.606,0.379,1.457-0.202,1.954C259.778,279.636,258.9,279.547,258.427,278.942z"/> <path style="fill:#FFFFFF;" d="M263.436,274.764c-0.519-0.586-0.47-1.438,0.086-1.952c0.564-0.522,1.457-0.473,1.957,0.111 c0.519,0.559,0.453,1.435-0.086,1.952C264.807,275.39,263.951,275.343,263.436,274.764z"/> <path style="fill:#FFFFFF;" d="M268.222,270.316c-0.539-0.539-0.564-1.415-0.025-1.952c0.559-0.542,1.418-0.542,1.952,0 c0.566,0.537,0.539,1.413,0.025,1.952C269.63,270.858,268.756,270.858,268.222,270.316z"/> <path style="fill:#FFFFFF;" d="M272.756,265.647c-0.586-0.517-0.635-1.391-0.111-1.954c0.514-0.559,1.393-0.625,1.952-0.111 c0.581,0.514,0.63,1.391,0.111,1.977C274.198,266.119,273.332,266.144,272.756,265.647z"/> <path style="fill:#FFFFFF;" d="M277.063,260.706c-0.606-0.47-0.711-1.351-0.226-1.93c0.5-0.583,1.351-0.672,1.937-0.204 c0.606,0.47,0.697,1.374,0.222,1.957C278.501,261.115,277.649,261.201,277.063,260.706z"/> <path style="fill:#FFFFFF;" d="M281.086,255.586c-0.63-0.448-0.77-1.302-0.318-1.93c0.453-0.63,1.327-0.766,1.932-0.315 c0.63,0.45,0.766,1.327,0.313,1.932C282.572,255.902,281.694,256.034,281.086,255.586z"/> <path style="fill:#FFFFFF;" d="M284.837,250.245c-0.63-0.409-0.832-1.26-0.409-1.908c0.409-0.63,1.26-0.832,1.903-0.406 c0.66,0.428,0.842,1.282,0.409,1.905C286.331,250.491,285.487,250.668,284.837,250.245z"/> <path style="fill:#FFFFFF;" d="M288.313,244.719c-0.672-0.379-0.894-1.206-0.514-1.886c0.379-0.65,1.236-0.896,1.886-0.492 c0.677,0.357,0.898,1.211,0.514,1.886C289.812,244.874,288.972,245.127,288.313,244.719z"/> <path style="fill:#FFFFFF;" d="M291.476,239.02c-0.667-0.337-0.938-1.169-0.601-1.841c0.332-0.697,1.186-0.97,1.861-0.63 c0.677,0.359,0.948,1.189,0.61,1.886C293.004,239.109,292.177,239.375,291.476,239.02z"/> <path style="fill:#FFFFFF;" d="M294.356,233.179c-0.702-0.313-1.009-1.145-0.702-1.841c0.318-0.692,1.125-1.009,1.822-0.692 c0.721,0.313,1.039,1.12,0.721,1.817C295.879,233.179,295.072,233.472,294.356,233.179z"/> <path style="fill:#FFFFFF;" d="M296.918,227.161c-0.721-0.268-1.086-1.078-0.793-1.794c0.273-0.694,1.063-1.054,1.775-0.783 c0.721,0.268,1.081,1.076,0.812,1.794C298.437,227.07,297.63,227.436,296.918,227.161z"/> <path style="fill:#FFFFFF;" d="M299.158,221.034c-0.721-0.251-1.115-1.009-0.874-1.733c0.246-0.738,1.009-1.118,1.726-0.896 c0.741,0.226,1.125,1.036,0.898,1.75C300.687,220.871,299.899,221.28,299.158,221.034z"/> <path style="fill:#FFFFFF;" d="M301.09,214.791c-0.741-0.199-1.169-0.943-0.985-1.686c0.222-0.741,0.958-1.167,1.706-0.985 c0.736,0.199,1.164,0.967,0.985,1.706C302.597,214.567,301.831,214.993,301.09,214.791z"/> <path style="fill:#FFFFFF;" d="M302.683,208.48c-0.741-0.177-1.231-0.898-1.054-1.659c0.158-0.746,0.894-1.214,1.615-1.061 c0.766,0.158,1.236,0.901,1.073,1.642C304.162,208.167,303.424,208.618,302.683,208.48z"/> <path style="fill:#FFFFFF;" d="M303.966,202.063c-0.77-0.116-1.302-0.812-1.169-1.575c0.135-0.766,0.832-1.282,1.568-1.147 c0.77,0.113,1.282,0.834,1.174,1.573C305.398,201.676,304.706,202.193,303.966,202.063z"/> <path style="fill:#FFFFFF;" d="M304.866,195.596c-0.77-0.066-1.302-0.746-1.216-1.506c0.066-0.768,0.77-1.324,1.504-1.236 c0.761,0.091,1.327,0.763,1.236,1.526C306.321,195.141,305.625,195.682,304.866,195.596z"/> <path style="fill:#FFFFFF;" d="M305.447,189.105c-0.766-0.044-1.351-0.697-1.302-1.462c0.044-0.766,0.702-1.346,1.457-1.302 c0.77,0.047,1.351,0.697,1.327,1.462C306.89,188.564,306.21,189.15,305.447,189.105z"/> <path style="fill:#FFFFFF;" d="M305.716,182.572c-0.788,0-1.398-0.61-1.398-1.371c0-0.766,0.61-1.371,1.371-1.371 c0.793,0,1.393,0.606,1.393,1.371C307.082,181.962,306.481,182.572,305.716,182.572z"/> <path style="fill:#FFFFFF;" d="M305.6,176.054c-0.756,0.052-1.413-0.537-1.457-1.297c-0.049-0.768,0.539-1.435,1.302-1.46 c0.766-0.044,1.442,0.539,1.482,1.322C306.951,175.362,306.37,176.01,305.6,176.054z"/> <path style="fill:#FFFFFF;" d="M305.154,169.543c-0.736,0.091-1.438-0.465-1.504-1.231c-0.086-0.766,0.448-1.438,1.216-1.504 c0.761-0.086,1.438,0.448,1.524,1.216C306.481,168.783,305.913,169.457,305.154,169.543z"/> <path style="fill:#FFFFFF;" d="M304.364,163.055c-0.736,0.133-1.452-0.379-1.568-1.142c-0.116-0.768,0.399-1.46,1.169-1.573 c0.741-0.133,1.433,0.404,1.573,1.145C305.674,162.228,305.135,162.944,304.364,163.055z"/> <path style="fill:#FFFFFF;" d="M303.264,156.61c-0.741,0.18-1.499-0.288-1.634-1.029c-0.155-0.766,0.313-1.482,1.054-1.664 c0.741-0.155,1.482,0.318,1.634,1.078C304.5,155.742,304.01,156.48,303.264,156.61z"/> <path style="fill:#FFFFFF;" d="M301.812,150.257c-0.751,0.209-1.504-0.224-1.706-0.965c-0.182-0.741,0.246-1.502,0.985-1.684 c0.741-0.202,1.504,0.226,1.706,0.962C303.001,149.317,302.548,150.055,301.812,150.257z"/> <path style="fill:#FFFFFF;" d="M300.01,143.998c-0.716,0.224-1.482-0.16-1.726-0.901c-0.241-0.716,0.155-1.499,0.874-1.726 c0.741-0.249,1.529,0.155,1.75,0.871C301.154,142.986,300.751,143.744,300.01,143.998z"/> <path style="fill:#FFFFFF;" d="M297.898,137.799c-0.692,0.288-1.499-0.047-1.775-0.768c-0.263-0.716,0.071-1.526,0.793-1.794 c0.711-0.271,1.519,0.089,1.794,0.788C298.981,136.746,298.619,137.526,297.898,137.799z"/> <path style="fill:#FFFFFF;" d="M295.476,131.756c-0.697,0.315-1.504,0-1.822-0.694c-0.308-0.697,0-1.524,0.702-1.822 c0.716-0.332,1.524,0,1.841,0.702C296.514,130.634,296.197,131.441,295.476,131.756z"/> <path style="fill:#FFFFFF;" d="M292.736,125.831c-0.672,0.357-1.529,0.089-1.861-0.608c-0.337-0.672-0.066-1.502,0.601-1.839 c0.702-0.362,1.529-0.091,1.895,0.581C293.701,124.66,293.438,125.492,292.736,125.831z"/> <path style="fill:#FFFFFF;" d="M289.684,120.062c-0.65,0.404-1.504,0.177-1.886-0.5c-0.379-0.667-0.158-1.524,0.514-1.883 c0.66-0.406,1.499-0.155,1.886,0.49C290.582,118.846,290.361,119.678,289.684,120.062z"/> <path style="fill:#FFFFFF;" d="M286.331,114.466c-0.645,0.428-1.494,0.251-1.903-0.399c-0.404-0.655-0.222-1.504,0.409-1.908 c0.65-0.431,1.494-0.249,1.932,0.404C287.173,113.186,286.991,114.043,286.331,114.466z"/> <path style="fill:#FFFFFF;" d="M282.703,109.039c-0.606,0.465-1.482,0.337-1.932-0.293s-0.313-1.482,0.318-1.935 c0.606-0.448,1.487-0.31,1.927,0.32C283.466,107.737,283.333,108.606,282.703,109.039z"/> <path style="fill:#FFFFFF;" d="M278.774,103.803c-0.586,0.495-1.438,0.409-1.937-0.177c-0.463-0.583-0.379-1.487,0.226-1.954 c0.586-0.468,1.438-0.382,1.932,0.202S279.399,103.35,278.774,103.803z"/> <path style="fill:#FFFFFF;" d="M274.597,98.818c-0.559,0.495-1.438,0.473-1.952-0.091c-0.5-0.581-0.458-1.457,0.111-1.972 c0.576-0.495,1.442-0.45,1.952,0.111C275.227,97.425,275.178,98.304,274.597,98.818z"/> <path style="fill:#FFFFFF;" d="M270.174,94.014c-0.559,0.564-1.418,0.564-1.952,0.022c-0.539-0.561-0.539-1.415,0-1.954 c0.534-0.537,1.408-0.537,1.952,0C270.718,92.62,270.718,93.477,270.174,94.014z"/> <path style="fill:#FFFFFF;" d="M265.482,89.482c-0.5,0.583-1.393,0.625-1.957,0.111c-0.559-0.519-0.606-1.391-0.086-1.957 c0.514-0.581,1.371-0.628,1.957-0.111C265.952,88.044,266.001,88.913,265.482,89.482z"/> <path style="fill:#FFFFFF;" d="M260.564,85.191c-0.47,0.606-1.351,0.692-1.952,0.197c-0.586-0.465-0.672-1.346-0.182-1.925 c0.47-0.61,1.351-0.699,1.932-0.224C260.967,83.732,261.058,84.581,260.564,85.191z"/> <path style="fill:#FFFFFF;" d="M255.419,81.169c-0.448,0.608-1.302,0.77-1.927,0.318c-0.606-0.473-0.746-1.324-0.288-1.932 c0.448-0.625,1.317-0.761,1.927-0.315C255.754,79.687,255.889,80.544,255.419,81.169z"/> <path style="fill:#FFFFFF;" d="M250.102,77.398c-0.428,0.65-1.28,0.857-1.918,0.423c-0.645-0.423-0.822-1.28-0.399-1.927 c0.399-0.65,1.265-0.827,1.908-0.404C250.346,75.916,250.528,76.773,250.102,77.398z"/> <path style="fill:#FFFFFF;" d="M244.554,73.942c-0.357,0.65-1.216,0.894-1.886,0.49c-0.65-0.379-0.874-1.211-0.495-1.886 c0.379-0.67,1.236-0.898,1.89-0.49C244.731,72.414,244.958,73.265,244.554,73.942z"/> <path style="fill:#FFFFFF;" d="M238.85,70.754c-0.342,0.67-1.174,0.962-1.841,0.603c-0.672-0.34-0.938-1.194-0.606-1.863 c0.337-0.672,1.186-0.945,1.866-0.606C238.942,69.226,239.212,70.078,238.85,70.754z"/> <path style="fill:#FFFFFF;" d="M233.014,67.877c-0.318,0.694-1.125,1.036-1.841,0.721c-0.677-0.315-0.994-1.147-0.677-1.844 c0.298-0.692,1.125-1.009,1.822-0.692C233.014,66.351,233.327,67.183,233.014,67.877z"/> <path style="fill:#FFFFFF;" d="M226.996,65.314c-0.268,0.724-1.054,1.081-1.78,0.812c-0.711-0.293-1.078-1.078-0.783-1.794 c0.268-0.721,1.078-1.078,1.78-0.81C226.924,63.796,227.284,64.601,226.996,65.314z"/> <path style="fill:#FFFFFF;" d="M220.884,63.072c-0.246,0.724-1.029,1.125-1.745,0.901c-0.721-0.254-1.125-1.036-0.903-1.753 c0.251-0.743,1.034-1.12,1.755-0.898C220.706,61.548,221.11,62.356,220.884,63.072z"/> <path style="fill:#FFFFFF;" d="M214.654,61.145c-0.212,0.738-0.953,1.191-1.716,0.985c-0.721-0.202-1.164-0.962-0.962-1.706 c0.197-0.741,0.962-1.164,1.684-0.985C214.417,59.641,214.85,60.401,214.654,61.145z"/> <path style="fill:#FFFFFF;" d="M208.318,59.547c-0.158,0.738-0.903,1.236-1.644,1.081c-0.741-0.16-1.236-0.903-1.054-1.642 c0.14-0.763,0.894-1.233,1.634-1.078C207.995,58.068,208.47,58.804,208.318,59.547z"/> <path style="fill:#FFFFFF;" d="M201.895,58.289c-0.091,0.77-0.812,1.282-1.578,1.15c-0.736-0.111-1.25-0.812-1.12-1.573 c0.091-0.766,0.802-1.282,1.573-1.169C201.534,56.832,202.028,57.529,201.895,58.289z"/> <path style="fill:#FFFFFF;" d="M195.446,57.374c-0.062,0.763-0.741,1.3-1.524,1.233c-0.746-0.091-1.302-0.766-1.211-1.529 c0.057-0.761,0.736-1.317,1.499-1.231C194.976,55.938,195.515,56.606,195.446,57.374z"/> <path style="fill:#FFFFFF;" d="M188.938,56.785c-0.02,0.768-0.677,1.349-1.438,1.302c-0.766-0.047-1.371-0.67-1.322-1.435 c0.044-0.763,0.711-1.371,1.482-1.327C188.418,55.37,189.004,56.025,188.938,56.785z"/> </g><path style="fill:#3E4959;" d="M117.332,178.437c0-27.166,16.975-50.336,40.908-59.525l-6.961-18.139 c-0.985,0.379-3.052,1.231-4.015,1.662C105.346,121.09,86.481,170.22,105.14,212.14l17.669-7.86 C119.289,196.377,117.332,187.643,117.332,178.437z"/><path style="fill:#21D8DE;" d="M122.809,204.281l-17.669,7.86c10.422,23.397,28.409,39.023,53.014,46.075l5.322-18.526 C145.26,234.481,130.4,221.371,122.809,204.281z"/><path style="fill:#FFFFFF;" d="M233.282,214.902c-11.525,16.482-30.629,27.237-52.231,27.237c-6.105,0-12.005-0.857-17.578-2.449 l-5.319,18.526c34.846,9.991,70.193-2.516,90.981-32.219L233.282,214.902z"/><path style="fill:#FF6D3B;" d="M181.054,95.249v19.466c35.188,0,63.702,28.514,63.702,63.722c0,13.561-4.246,26.134-11.471,36.463 l15.85,11.097c10.4-14.848,15.02-29.531,15.02-47.646C264.155,132.453,226.946,95.249,181.054,95.249z"/><g> <path style="fill:#FFB733;" d="M181.054,114.718L181.054,114.718V95.252c-10.639,0-19.847,1.706-29.775,5.524l6.961,18.139 C165.342,116.197,173.014,114.718,181.054,114.718z"/> <circle style="fill:#FFB733;" cx="158.843" cy="58.511" r="18.006"/> </g><path style="fill:#FF6D3B;" d="M308.03,120.645c0,9.922-8.062,17.986-18.004,17.986c-9.947,0-18.009-8.062-18.009-17.986 c0-9.967,8.062-18.004,18.009-18.004C299.966,102.639,308.03,110.678,308.03,120.645z"/><circle style="fill:#FFFFFF;" cx="223.606" cy="298.412" r="18.006"/><path style="fill:#21D8DE;" d="M115.943,273.888c0,9.947-8.044,18.009-18.009,18.009c-9.922,0-18.004-8.062-18.004-18.009 c0-9.95,8.081-18.006,18.004-18.006C107.899,255.879,115.943,263.938,115.943,273.888z"/><path style="fill:#3E4959;" d="M84.913,131.015c0,9.952-8.086,18.011-18.009,18.011c-9.952,0-18.009-8.059-18.009-18.011 c0-9.922,8.057-18.004,18.009-18.004C76.827,113.009,84.913,121.09,84.913,131.015z"/></symbol><symbol id="pie-chart" viewBox="0 0 394.043 394.043"><title>pie-chart</title><circle style="fill:#FF6D3B;" cx="178.462" cy="197.022" r="178.462"/><path style="fill:#F2F2F2;" d="M124.935,197.024H62.969c0-63.682,51.806-115.486,115.481-115.486l0.01,61.967 C148.943,143.505,124.935,167.513,124.935,197.024z"/><path style="fill:#3E4959;" d="M216.29,159.178c-10.102-10.105-23.54-15.673-37.831-15.673V81.538 c30.846,0,59.85,12.017,81.657,33.834L216.29,159.178z"/><path style="fill:#21D8DE;" d="M260.106,278.683l-43.806-43.83c10.105-10.102,15.67-23.54,15.67-37.829 c0-14.297-5.566-27.734-15.67-37.836l43.806-43.828c21.819,21.807,33.834,50.811,33.834,81.664 C293.94,227.872,281.925,256.871,260.106,278.683z"/><path style="fill:#FFD55C;" d="M178.449,312.505c-63.675,0-115.481-51.806-115.481-115.481h61.967 c0,29.506,24.007,53.509,53.514,53.509c14.302,0,27.742-5.566,37.841-15.668l43.825,43.806 C238.309,300.487,209.305,312.505,178.449,312.505z"/><polygon style="fill:#F2F2F2;" points="91.222,122.223 86.666,105.221 103.668,109.777 "/><polygon style="fill:#FFD55C;" points="142.575,306.287 128.608,317.002 126.309,299.55 "/><polygon style="fill:#21D8DE;" points="293.142,188.219 308.386,197.024 293.142,205.822 "/><polygon style="fill:#3E4959;" points="214.215,87.623 228.18,76.906 230.481,94.358 "/><path style="fill:#FFB733;" d="M111.801,197.024c0,36.81,29.841,66.656,66.658,66.656c18.407,0,35.067-7.458,47.131-19.522 l-9.3-9.292c-10.102,10.102-23.54,15.668-37.841,15.668c-29.506,0-53.514-24.002-53.514-53.509H111.801z"/><path style="fill:#06B2B8;" d="M225.593,244.153c12.062-12.062,19.525-28.729,19.525-47.136c0-18.405-7.461-35.07-19.522-47.129 l-9.295,9.3c10.105,10.102,15.67,23.54,15.67,37.836c0,14.289-5.566,27.729-15.67,37.829L225.593,244.153z"/><path style="fill:#242D3C;" d="M216.29,159.178l9.302-9.292c-12.066-12.062-28.729-19.525-47.134-19.525v13.145 C192.751,143.505,206.191,149.073,216.29,159.178z"/><path style="fill:#D9D8D7;" d="M178.459,143.505v-13.145c-36.817,0-66.658,29.844-66.658,66.656v0.007h13.135 C124.935,167.513,148.943,143.505,178.459,143.505z"/><rect x="232.345" y="51.552" style="fill:#3E4959;" width="81.502" height="21.189"/><rect x="312.542" y="186.412" style="fill:#21D8DE;" width="81.502" height="21.189"/><rect x="42.954" y="321.157" style="fill:#FFD55C;" width="81.502" height="21.189"/><rect x="1.007" y="79.877" style="fill:#F2F2F2;" width="81.502" height="21.186"/></symbol><symbol id="profits" viewBox="0 0 511.999 511.999"><title>profits</title><circle style="fill:#21D8DE;" cx="259.036" cy="256.436" r="252.086"/><path style="fill:#16C6CC;" d="M33.651,369.316c41.419,82.525,126.763,139.205,225.391,139.205s183.972-56.68,225.391-139.205 H33.651z"/><path style="fill:#06B2B8;" d="M7.475,272.458v-15.5h27.024v27.021H8.458c0.038,0.347,0.079,0.694,0.119,1.04h25.922v26.898H13.094 c0.078,0.347,0.148,0.699,0.227,1.047h21.177v27.021h-13.35c0.121,0.346,0.243,0.694,0.366,1.04h12.983v26.898h-1.595 c0.172,0.348,0.345,0.696,0.518,1.044h1.076v2.165c0.339,0.662,0.695,1.315,1.04,1.975v-4.14h26.898v27.024H49.089 c0.23,0.346,0.455,0.698,0.687,1.042h12.658v17.168c0.349,0.434,0.695,0.869,1.047,1.3v-18.468h27.021v26.898H70.666 c0.308,0.346,0.613,0.695,0.922,1.04h18.916v18.916c0.345,0.309,0.694,0.614,1.04,0.922V424.97h26.899v27.021H99.975 c0.431,0.352,0.866,0.698,1.3,1.047h17.168v12.658c0.345,0.232,0.696,0.456,1.042,0.686v-13.346h27.024v26.898h-4.139 c0.66,0.345,1.312,0.701,1.975,1.04h2.165v1.076c0.347,0.174,0.695,0.346,1.042,0.518v-1.592h26.898v12.983 c0.346,0.123,0.694,0.244,1.04,0.366v-13.349h27.021v21.177c0.347,0.079,0.699,0.15,1.047,0.227v-21.405h26.898v25.922 c0.346,0.04,0.692,0.081,1.04,0.119v-26.041h27.024V508h-15.503c5.301,0.332,10.641,0.521,16.026,0.521 c5.385,0,10.724-0.189,16.026-0.521h-15.5v-27.024h27.021v26.042c0.347-0.038,0.694-0.079,1.04-0.119v-25.923h26.898v21.405 c0.348-0.078,0.699-0.148,1.047-0.227v-21.177h27.021v13.35c0.346-0.121,0.694-0.243,1.04-0.366v-12.984h26.898v1.595 c0.348-0.172,0.696-0.345,1.042-0.518v-1.076h2.165c0.663-0.339,1.315-0.695,1.975-1.04h-4.139v-26.898H398.6v13.346 c0.346-0.23,0.698-0.455,1.042-0.686V453.04h17.168c0.434-0.349,0.869-0.695,1.3-1.047h-18.468v-27.021h26.898v19.838 c0.346-0.308,0.695-0.613,1.04-0.922v-18.916h18.916c0.309-0.345,0.614-0.694,0.922-1.04H427.58v-26.898H454.6v18.468 c0.352-0.431,0.698-0.866,1.047-1.3v-17.168h12.658c0.232-0.345,0.456-0.696,0.686-1.042h-13.346v-27.024h26.898v4.139 c0.345-0.66,0.701-1.312,1.04-1.975v-2.165h1.076c0.174-0.348,0.346-0.695,0.518-1.044h-1.595v-26.898h12.983 c0.123-0.346,0.244-0.694,0.366-1.04h-13.35v-27.021h21.177c0.079-0.348,0.15-0.699,0.227-1.047h-21.405V285.02h25.922 c0.04-0.346,0.081-0.692,0.119-1.04h-26.042v-27.022h27.021v15.557c0.335-5.32,0.525-10.678,0.525-16.082 c0-5.404-0.191-10.762-0.525-16.082v15.559h-27.021v-27.024h26.042c-0.038-0.347-0.079-0.694-0.119-1.04h-25.923V200.95h21.405 c-0.078-0.347-0.148-0.699-0.227-1.047h-21.177v-27.021h13.35c-0.121-0.346-0.243-0.694-0.366-1.04h-12.983v-26.898h1.595 c-0.172-0.348-0.345-0.696-0.518-1.042h-1.076v-2.165c-0.339-0.662-0.695-1.315-1.04-1.975v4.139h-26.898v-27.024h13.346 c-0.23-0.346-0.455-0.698-0.686-1.042h-12.658v-17.17c-0.349-0.434-0.695-0.869-1.047-1.3v18.468h-27.021V88.936h19.838 c-0.308-0.346-0.613-0.695-0.922-1.04h-18.916V68.98c-0.345-0.309-0.694-0.614-1.04-0.922v19.838h-26.898V60.876h18.468 c-0.431-0.352-0.866-0.698-1.3-1.047h-17.168V47.172c-0.345-0.232-0.696-0.456-1.042-0.687v13.346h-27.024V32.93h4.139 c-0.66-0.345-1.312-0.701-1.975-1.04h-2.165v-1.076c-0.348-0.174-0.695-0.346-1.042-0.518v1.595h-26.898V18.906 c-0.346-0.123-0.694-0.244-1.04-0.366v13.35h-27.021V10.714c-0.347-0.079-0.699-0.15-1.047-0.227v21.406h-26.898V5.969 c-0.346-0.04-0.692-0.081-1.04-0.119v26.042h-27.021V4.867h15.501c-5.301-0.333-10.642-0.521-16.027-0.521 c-5.385,0-10.726,0.189-16.027,0.521h15.506v27.024h-27.024V5.85c-0.347,0.038-0.694,0.079-1.04,0.119v25.923h-26.898V10.486 c-0.348,0.078-0.699,0.148-1.047,0.227v21.177h-27.021v-13.35c-0.346,0.121-0.694,0.243-1.04,0.366v12.984h-26.898v-1.595 c-0.347,0.172-0.696,0.345-1.042,0.518v1.076h-2.165c-0.663,0.339-1.315,0.695-1.975,1.04h4.139v26.898h-27.024V46.482 c-0.346,0.23-0.698,0.455-1.042,0.687v12.658h-17.168c-0.434,0.349-0.869,0.695-1.3,1.047h18.468v27.021H91.544V68.058 c-0.346,0.308-0.695,0.613-1.04,0.922v18.916H71.59c-0.309,0.345-0.614,0.694-0.922,1.04h19.838v26.898H63.485V97.367 c-0.352,0.431-0.698,0.866-1.047,1.3v17.168H49.779c-0.232,0.345-0.456,0.696-0.687,1.042h13.346v27.024H35.539v-4.14 c-0.345,0.66-0.701,1.312-1.04,1.975v2.165h-1.076c-0.174,0.347-0.346,0.695-0.518,1.042h1.595v26.898H21.516 c-0.123,0.346-0.244,0.694-0.366,1.04H34.5v27.021H13.322c-0.079,0.347-0.15,0.699-0.227,1.047h21.405v26.898H8.577 c-0.04,0.346-0.081,0.692-0.119,1.04H34.5v27.024H7.475v-15.504c-0.332,5.301-0.521,10.641-0.521,16.026 S7.143,267.159,7.475,272.458z M35.539,256.958h26.898v27.021H35.539V256.958z M119.486,312.964h27.024v27.021h-27.024V312.964z M118.443,339.985H91.544v-27.021h26.899V339.985z M258.52,285.019v26.898h-27.024v-26.898H258.52z M231.496,283.979v-27.021h27.024 v27.021H231.496z M259.567,285.019h27.021v26.898h-27.021V285.019z M259.567,283.979v-27.021h27.021v27.021H259.567z M287.627,256.958h26.898v27.021h-26.898V256.958z M287.627,255.912v-27.024h26.898v27.024H287.627z M286.588,255.912h-27.021 v-27.024h27.021V255.912z M259.567,227.848V200.95h27.021v26.898H259.567z M258.52,227.848h-27.024V200.95h27.024V227.848z M258.52,228.888v27.024h-27.024v-27.024H258.52z M230.457,255.912h-26.898v-27.024h26.898L230.457,255.912L230.457,255.912z M230.457,256.958v27.021h-26.898v-27.021H230.457z M202.512,283.979h-27.021v-27.021h27.021V283.979z M202.512,285.019v26.898 h-27.021v-26.898H202.512z M203.559,285.019h26.898v26.898h-26.898L203.559,285.019L203.559,285.019z M230.457,312.964v27.021 h-26.898v-27.021H230.457z M231.496,312.964h27.024v27.021h-27.024V312.964z M258.52,341.024v26.898h-27.024v-26.898H258.52z M259.567,341.024h27.021v26.898h-27.021V341.024z M259.567,339.985v-27.021h27.021v27.021H259.567z M287.627,312.964h26.898v27.021 h-26.898V312.964z M287.627,311.917v-26.898h26.898v26.898H287.627L287.627,311.917z M315.572,285.019h27.021v26.898h-27.021 V285.019z M315.572,283.979v-27.021h27.021v27.021H315.572z M343.633,256.958h26.898v27.021h-26.898L343.633,256.958 L343.633,256.958z M343.633,255.912v-27.024h26.898v27.024H343.633z M342.593,255.912h-27.021v-27.024h27.021V255.912z M315.572,227.848V200.95h27.021v26.898H315.572z M314.525,227.848h-26.898V200.95h26.898V227.848z M287.627,199.904v-27.021h26.898 v27.021H287.627z M286.588,199.904h-27.021v-27.021h27.021V199.904z M259.567,171.843v-26.898h27.021v26.898H259.567z M258.52,171.843h-27.024v-26.898h27.024V171.843z M258.52,172.883v27.021h-27.024v-27.021H258.52z M230.457,199.904h-26.898 v-27.021h26.898L230.457,199.904L230.457,199.904z M230.457,200.95v26.898h-26.898V200.95H230.457z M202.512,227.848h-27.021V200.95 h27.021V227.848z M202.512,228.888v27.024h-27.021v-27.024H202.512z M174.451,255.912h-26.898v-27.024h26.898V255.912z M174.451,256.958v27.021h-26.898v-27.021H174.451z M174.451,285.019v26.898h-26.898v-26.898H174.451z M174.451,312.964v27.021 h-26.898v-27.021H174.451z M175.491,312.964h27.021v27.021h-27.021V312.964L175.491,312.964z M202.512,341.024v26.898h-27.021 v-26.898H202.512z M203.559,341.024h26.898v26.898h-26.898L203.559,341.024L203.559,341.024z M230.457,368.966v27.024h-26.898 v-27.024H230.457z M231.496,368.966h27.024v27.024h-27.024V368.966z M259.567,368.966h27.021v27.024h-27.021V368.966z M287.627,368.966h26.898v27.024h-26.898V368.966z M287.627,367.922v-26.898h26.898v26.898H287.627z M315.572,341.024h27.021v26.898 h-27.021V341.024z M315.572,339.985v-27.021h27.021v27.021H315.572z M343.633,312.964h26.898v27.021h-26.898L343.633,312.964 L343.633,312.964z M343.633,311.917v-26.898h26.898v26.898H343.633L343.633,311.917z M371.574,285.019h27.024v26.898h-27.024 V285.019z M371.574,283.979v-27.021h27.024v27.021H371.574z M371.574,255.912v-27.024h27.024v27.024H371.574z M371.574,227.848 V200.95h27.024v26.898H371.574z M370.531,227.848h-26.898V200.95h26.898V227.848z M343.633,199.904v-27.021h26.898v27.021H343.633z M342.593,199.904h-27.021v-27.021h27.021V199.904z M315.572,171.843v-26.898h27.021v26.898H315.572z M314.525,171.843h-26.898 v-26.898h26.898V171.843z M287.627,143.901v-27.024h26.898v27.024H287.627z M286.588,143.901h-27.021v-27.024h27.021V143.901z M258.52,143.901h-27.024v-27.024h27.024V143.901z M230.457,143.901h-26.898v-27.024h26.898L230.457,143.901L230.457,143.901z M230.457,144.945v26.898h-26.898v-26.898H230.457z M202.512,171.843h-27.021v-26.898h27.021V171.843z M202.512,172.883v27.021 h-27.021v-27.021H202.512z M174.451,199.904h-26.898v-27.021h26.898V199.904z M174.451,200.95v26.898h-26.898V200.95H174.451z M146.51,227.848h-27.024V200.95h27.024V227.848L146.51,227.848z M146.51,228.888v27.024h-27.024v-27.024H146.51z M146.51,256.958 v27.021h-27.024v-27.021H146.51z M146.51,285.019v26.898h-27.024v-26.898H146.51z M146.51,341.024v26.898h-27.024v-26.898H146.51z M147.553,341.024h26.898v26.898h-26.898V341.024z M174.451,368.966v27.024h-26.898v-27.024H174.451z M175.491,368.966h27.021 v27.024h-27.021V368.966L175.491,368.966z M202.512,397.032v26.898h-27.021v-26.898H202.512z M203.559,397.032h26.898v26.898 h-26.898L203.559,397.032L203.559,397.032z M231.496,397.032h27.024v26.898h-27.024V397.032z M259.567,397.032h27.021v26.898 h-27.021V397.032z M287.627,397.032h26.898v26.898h-26.898V397.032z M315.572,397.032h27.021v26.898h-27.021V397.032z M315.572,395.99v-27.024h27.021v27.024H315.572z M343.633,368.966h26.898v27.024h-26.898L343.633,368.966L343.633,368.966z M343.633,367.922v-26.898h26.898v26.898H343.633z M371.574,341.024h27.024v26.898h-27.024V341.024z M371.574,339.985v-27.021 h27.024v27.021H371.574z M399.641,312.964h26.898v27.021h-26.898V312.964z M399.641,311.917v-26.898h26.898v26.898H399.641 L399.641,311.917z M399.641,283.979v-27.021h26.898v27.021H399.641z M399.641,255.912v-27.024h26.898v27.024H399.641z M399.641,227.848V200.95h26.898v26.898H399.641z M399.641,199.904v-27.021h26.898v27.021H399.641z M398.598,199.904h-27.024 v-27.021h27.024V199.904z M371.574,171.843v-26.898h27.024v26.898H371.574z M370.531,171.843h-26.898v-26.898h26.898V171.843z M343.633,143.901v-27.024h26.898v27.024H343.633z M342.593,143.901h-27.021v-27.024h27.021V143.901z M315.572,115.835V88.936 h27.021v26.898h-27.021V115.835z M314.525,115.835h-26.898V88.936h26.898V115.835z M286.588,115.835h-27.021V88.936h27.021V115.835z M258.52,115.835h-27.024V88.936h27.024V115.835z M230.457,115.835h-26.898V88.936h26.898L230.457,115.835L230.457,115.835z M202.512,115.835h-27.021V88.936h27.021V115.835z M202.512,116.877v27.024h-27.021v-27.024H202.512z M174.451,143.901h-26.898 v-27.024h26.898V143.901z M174.451,144.945v26.898h-26.898v-26.898H174.451z M146.51,171.843h-27.024v-26.898h27.024V171.843 L146.51,171.843z M146.51,172.883v27.021h-27.024v-27.021H146.51z M118.443,199.904H91.544v-27.021h26.899V199.904z M118.443,200.95 v26.898H91.544V200.95H118.443z M118.443,228.888v27.024H91.544v-27.024H118.443z M118.443,256.958v27.021H91.544v-27.021H118.443z M118.443,285.019v26.898H91.544v-26.898H118.443z M90.504,311.917H63.485v-26.898h27.021v26.898H90.504z M90.504,312.964v27.021 H63.485v-27.021H90.504z M90.504,341.024v26.898H63.485v-26.898H90.504z M91.544,341.024h26.899v26.898H91.544V341.024z M118.443,368.966v27.024H91.544v-27.024H118.443z M119.486,368.966h27.024v27.024h-27.024V368.966z M146.51,397.032v26.898h-27.024 v-26.898H146.51z M147.553,397.032h26.898v26.898h-26.898V397.032z M174.451,424.971v27.021h-26.898v-27.021H174.451z M175.491,424.971h27.021v27.021h-27.021V424.971L175.491,424.971z M203.559,424.971h26.898v27.021h-26.898L203.559,424.971 L203.559,424.971z M231.496,424.971h27.024v27.021h-27.024V424.971z M259.567,424.971h27.021v27.021h-27.021V424.971z M287.627,424.971h26.898v27.021h-26.898V424.971z M315.572,424.971h27.021v27.021h-27.021V424.971z M343.633,424.971h26.898v27.021 h-26.898L343.633,424.971L343.633,424.971z M343.633,423.932v-26.898h26.898v26.898H343.633z M371.574,397.032h27.024v26.898 h-27.024V397.032z M371.574,395.99v-27.024h27.024v27.024H371.574z M399.641,368.966h26.898v27.024h-26.898V368.966z M399.641,367.922v-26.898h26.898v26.898H399.641z M427.58,341.024h27.021v26.898H427.58V341.024z M427.58,339.985v-27.021h27.021 v27.021H427.58z M427.58,311.917v-26.898h27.021v26.898H427.58L427.58,311.917z M427.58,283.979v-27.021h27.021v27.021H427.58z M427.58,255.912v-27.024h27.021v27.024H427.58z M427.58,227.848V200.95h27.021v26.898H427.58z M427.58,199.904v-27.021h27.021 v27.021H427.58z M427.58,171.843v-26.898h27.021v26.898H427.58z M426.54,171.843h-26.898v-26.898h26.898V171.843z M399.641,143.901 v-27.024h26.898v27.024H399.641z M398.598,143.901h-27.024v-27.024h27.024V143.901z M371.574,115.835V88.936h27.024v26.898h-27.024 V115.835z M370.531,115.835h-26.898V88.936h26.898V115.835z M343.633,87.896V60.876h26.898v27.021h-26.898V87.896z M342.593,87.896 h-27.021V60.876h27.021V87.896z M314.525,87.896h-26.898V60.876h26.898V87.896z M286.588,87.896h-27.021V60.876h27.021V87.896z M258.52,87.896h-27.024V60.876h27.024V87.896z M230.457,87.896h-26.898V60.876h26.898L230.457,87.896L230.457,87.896z M202.512,87.896h-27.021V60.876h27.021V87.896z M174.451,87.896h-26.898V60.876h26.898V87.896z M174.451,88.936v26.898h-26.898 V88.936H174.451z M146.51,115.835h-27.024V88.936h27.024V115.835L146.51,115.835z M146.51,116.877v27.024h-27.024v-27.024H146.51z M118.443,143.901H91.544v-27.024h26.899V143.901z M118.443,144.945v26.898H91.544v-26.898H118.443z M90.504,171.843H63.485v-26.898 h27.021v26.898H90.504z M90.504,172.883v27.021H63.485v-27.021H90.504z M90.504,200.95v26.898H63.485V200.95H90.504z M90.504,228.888v27.024H63.485v-27.024H90.504z M90.504,256.958v27.021H63.485v-27.021H90.504z M35.539,285.019h26.898v26.898 H35.539V285.019z M35.539,312.964h26.898v27.021H35.539V312.964z M35.539,367.922v-26.898h26.898v26.898H35.539z M63.485,395.99 v-27.024h27.021v27.024H63.485z M91.544,423.932v-26.898h26.899v26.898H91.544z M119.486,451.991V424.97h27.024v27.021H119.486z M147.553,479.937v-26.898h26.898v26.898H147.553z M175.491,479.937v-26.898h27.021v26.898H175.491z M203.559,479.937v-26.898 h26.898v26.898H203.559z M231.496,479.937v-26.898h27.024v26.898H231.496z M259.567,479.937v-26.898h27.021v26.898H259.567z M287.627,479.937v-26.898h26.898v26.898H287.627z M315.572,479.937v-26.898h27.021v26.898H315.572z M370.531,479.937h-26.898 v-26.898h26.898V479.937z M398.598,451.991h-27.024V424.97h27.024V451.991z M426.54,423.932h-26.898v-26.898h26.898V423.932z M454.599,395.99h-27.021v-27.024h27.021V395.99z M482.545,367.922h-26.898v-26.898h26.898V367.922z M482.545,339.985h-26.898 v-27.021h26.898V339.985z M482.545,311.917h-26.898v-26.898h26.898V311.917z M482.545,283.979h-26.898v-27.021h26.898V283.979z M482.545,255.912h-26.898v-27.024h26.898V255.912z M482.545,227.848h-26.898V200.95h26.898V227.848z M482.545,199.904h-26.898 v-27.021h26.898V199.904z M482.545,144.945v26.898h-26.898v-26.898H482.545z M454.599,116.877v27.024h-27.021v-27.024H454.599z M426.54,88.936v26.898h-26.898V88.936H426.54z M398.598,60.876v27.021h-27.024V60.876H398.598z M370.531,32.93v26.898h-26.898 V32.93H370.531z M342.593,32.93v26.898h-27.021V32.93H342.593z M314.525,32.93v26.898h-26.898V32.93H314.525z M286.588,32.93v26.898 h-27.021V32.93H286.588z M258.52,32.93v26.898h-27.024V32.93H258.52z M230.457,32.93v26.898h-26.898V32.93H230.457z M202.512,32.93 v26.898h-27.021V32.93H202.512z M147.553,32.93h26.898v26.898h-26.898V32.93z M119.486,60.876h27.024v27.021h-27.024V60.876z M91.544,88.936h26.899v26.898H91.544V88.936z M63.485,116.877h27.021v27.024H63.485V116.877z M35.539,144.945h26.898v26.898H35.539 V144.945z M35.539,172.883h26.898v27.021H35.539V172.883z M35.539,200.95h26.898v26.898H35.539V200.95z M35.539,228.888h26.898 v27.024H35.539V228.888z"/><path style="fill:#242D3C;" d="M482.917,117.813l-26.26,32.079l-26.262,8.919l-26.2,41.234l-26.248,3.647l-26.265,27.295 l-26.182-15.473l-30.554-31.753l-21.968,38.714l-26.262,13.686l-26.252-16.906l-26.196,14.719l-26.26,6.662l-26.255,40.508 l-26.2,18.459l-26.255-25.834l-26.252-8.817l-26.265,37.417l-26.262-8.101l-0.662,0.538c1.004,6.577,2.273,13.068,3.774,19.468 l23.149,5.269l26.265-27.695l26.252,6.554l26.255,19.118l26.2-13.682l26.255-29.976l26.26-4.948l26.196-10.925l26.252,12.628 l26.262-10.135l21.968-28.686l30.554,23.526l26.182,11.398l26.265-20.16l26.248-2.771l26.2-30.456l26.262-6.638l26.26-23.755 l28.213-11.332V102.57L482.917,117.813z"/><path style="fill:#F2F2F2;" d="M456.659,206.694l-26.262,6.638l-26.2,30.456l-26.248,2.771l-26.265,20.16l-26.182-11.398 l-30.554-23.526l-21.968,28.686l-26.262,10.135l-26.252-12.628l-26.196,10.925l-26.26,4.948l-26.255,29.976l-26.2,13.682 l-26.255-19.118l-26.252-6.554L36.78,319.542l-23.149-5.269c2.756,11.74,6.328,23.166,10.663,34.211l12.486,1.117l26.265-10.696 l26.252,2.517l26.255,7.43l26.2-5.327l26.255-11.51l26.26-1.927l26.196-4.225l26.252,4.854l26.262-3.887l21.968-11.091l30.554,9.071 l26.182,4.454l26.265-7.858l26.248-1.042l26.2-11.777l26.262-2.493l26.26-9.242l28.213-4.375V171.603l-28.213,11.332 L456.659,206.694z"/><path style="fill:#FF6D3B;" d="M456.659,306.097l-26.262,2.493l-26.2,11.777l-26.248,1.042l-26.265,7.858l-26.182-4.454 l-30.554-9.071l-21.968,11.091l-26.262,3.887l-26.252-4.854l-26.196,4.225l-26.26,1.927l-26.255,11.51l-26.2,5.327l-26.255-7.43 l-26.252-2.517L36.78,349.604l-12.486-1.117c2.666,6.793,5.63,13.436,8.854,19.927l477.981,0.078v-76.009l-28.213,4.375 L456.659,306.097z"/><g> <rect x="482.192" y="368.452" style="fill:#242D3C;" width="1.739" height="6.996"/> <rect x="510.26" y="367.576" style="fill:#242D3C;" width="1.739" height="7.865"/> <rect x="454.252" y="368.452" style="fill:#242D3C;" width="1.739" height="6.996"/> <rect x="426.184" y="368.452" style="fill:#242D3C;" width="1.739" height="6.996"/> <rect x="398.244" y="368.452" style="fill:#242D3C;" width="1.739" height="6.996"/> <rect x="370.19" y="368.452" style="fill:#242D3C;" width="1.739" height="6.996"/> <rect x="342.25" y="368.452" style="fill:#242D3C;" width="1.739" height="6.996"/> <rect x="314.182" y="368.452" style="fill:#242D3C;" width="1.739" height="6.996"/> <rect x="286.242" y="368.452" style="fill:#242D3C;" width="1.739" height="6.996"/> <rect x="258.174" y="368.452" style="fill:#242D3C;" width="1.739" height="6.996"/> <rect x="230.106" y="368.452" style="fill:#242D3C;" width="1.739" height="6.996"/> <rect x="202.166" y="368.452" style="fill:#242D3C;" width="1.739" height="6.996"/> <rect x="174.098" y="368.452" style="fill:#242D3C;" width="1.739" height="6.996"/> <rect x="146.158" y="368.452" style="fill:#242D3C;" width="1.739" height="6.996"/> <rect x="118.104" y="368.452" style="fill:#242D3C;" width="1.739" height="6.996"/> <rect x="90.157" y="368.452" style="fill:#242D3C;" width="1.739" height="6.996"/> <rect x="62.091" y="368.452" style="fill:#242D3C;" width="1.739" height="6.996"/> <rect x="34.156" y="368.452" style="fill:#242D3C;" width="1.739" height="6.996"/> <rect x="6.954" y="367.576" style="fill:#242D3C;" width="504.172" height="1.739"/> <rect y="3.477" style="fill:#242D3C;" width="6.954" height="1.739"/> <rect y="339.636" style="fill:#242D3C;" width="6.954" height="1.739"/> <rect y="311.568" style="fill:#242D3C;" width="6.954" height="1.739"/> <rect y="283.628" style="fill:#242D3C;" width="6.954" height="1.739"/> <rect y="255.56" style="fill:#242D3C;" width="6.954" height="1.739"/> <rect y="227.507" style="fill:#242D3C;" width="6.954" height="1.739"/> <rect y="199.566" style="fill:#242D3C;" width="6.954" height="1.739"/> <rect y="171.498" style="fill:#242D3C;" width="6.954" height="1.739"/> <rect y="143.544" style="fill:#242D3C;" width="6.954" height="1.739"/> <rect y="115.49" style="fill:#242D3C;" width="6.954" height="1.739"/> <rect y="87.548" style="fill:#242D3C;" width="6.954" height="1.739"/> <rect y="59.482" style="fill:#242D3C;" width="6.954" height="1.739"/> <rect y="31.54" style="fill:#242D3C;" width="6.954" height="1.739"/> <rect x="6.085" y="3.477" style="fill:#242D3C;" width="1.739" height="365.839"/> </g></symbol></svg>